<?xml version="1.0" encoding="utf-8"?>
<!-- Generator: Adobe Illustrator 14.0.0, SVG Export Plug-In . SVG Version: 6.00 Build 43363)  -->
<svg version="1.2" baseProfile="tiny" id="Layer_1" xmlns="http://www.w3.org/2000/svg" xmlns:xlink="http://www.w3.org/1999/xlink"
	 x="0px" y="0px" width="595.28px" height="253.784px" viewBox="0 0 595.28 253.784" xml:space="preserve">
<g id="_x23_1">
	<path id="Body" fill="#E6E6E6" d="M588.71,238.567c0,8.403-6.566,15.217-14.666,15.217H24.634c-8.099,0-14.669-6.813-14.669-15.217
		V49.22H588.71V238.567z"/>
	<circle id="Image" fill="#C8C8C8" cx="65.933" cy="120.426" r="45.932"/>
	<path id="Line1" fill="#C8C8C8" d="M556.595,74.494c0,4.057-3.293,7.349-7.35,7.349H137.693c-4.057,0-7.349-3.292-7.349-7.349l0,0
		c0-4.057,3.292-7.35,7.349-7.35h411.552C553.302,67.144,556.595,70.433,556.595,74.494L556.595,74.494z"/>
	<path id="Line2" fill="#C8C8C8" d="M466.567,98.885c0,4.057-3.293,7.35-7.35,7.35H143.205c-4.057,0-7.349-3.293-7.349-7.35l0,0
		c0-4.057,3.292-7.349,7.349-7.349h316.013C463.278,91.537,466.567,94.825,466.567,98.885L466.567,98.885z"/>
	<path id="Line3" fill="#C8C8C8" d="M532.71,120.426c0,4.057-3.293,7.35-7.35,7.35H143.205c-4.057,0-7.349-3.293-7.349-7.35l0,0
		c0-4.057,3.292-7.349,7.349-7.349H525.36C529.421,113.077,532.71,116.365,532.71,120.426L532.71,120.426z"/>
	<path id="Line4" fill="#C8C8C8" d="M530.259,142.782c0,3.892-3.152,7.041-7.045,7.041H140.449c-3.888,0-7.044-3.149-7.044-7.041
		l0,0c0-3.892,3.153-7.044,7.044-7.044h382.769C527.106,135.738,530.259,138.894,530.259,142.782L530.259,142.782z"/>
	<path id="Line5" fill="#C8C8C8" d="M288.351,166.358c0,4.057-3.292,7.35-7.349,7.35H137.693c-4.057,0-7.349-3.293-7.349-7.35l0,0
		c0-4.061,3.292-7.35,7.349-7.35h143.308C285.058,159.009,288.351,162.298,288.351,166.358L288.351,166.358z"/>
	<path fill="none" stroke="#999999" d="M574.968,228.348c0,4.057-3.293,7.349-7.35,7.349H31.131c-4.057,0-7.349-3.292-7.349-7.349
		v-29.396c0-4.057,3.292-7.35,7.349-7.35h536.487c4.057,0,7.35,3.293,7.35,7.35V228.348z"/>
	<g>
		<path fill="#999999" d="M185.477,220.623c0-1.069-0.404-1.966-1.211-2.688c-0.808-0.723-2.239-1.33-4.295-1.822
			c-2.487-0.594-4.427-1.468-5.821-2.622c-1.395-1.154-2.091-2.606-2.091-4.354c0-1.834,0.751-3.367,2.253-4.597
			c1.501-1.23,3.447-1.846,5.837-1.846c2.573,0,4.621,0.705,6.144,2.115s2.258,3.047,2.204,4.909l-0.032,0.097h-3.036
			c0-1.378-0.455-2.492-1.365-3.343c-0.91-0.85-2.215-1.275-3.916-1.275c-1.583,0-2.796,0.358-3.642,1.074s-1.268,1.649-1.268,2.802
			c0,1.022,0.458,1.876,1.373,2.559c0.915,0.685,2.4,1.284,4.457,1.801c2.476,0.613,4.36,1.518,5.652,2.713
			c1.292,1.195,1.938,2.676,1.938,4.44c0,1.896-0.775,3.418-2.325,4.57s-3.574,1.728-6.072,1.728c-2.347,0-4.422-0.638-6.225-1.913
			c-1.803-1.276-2.678-2.979-2.624-5.111l0.032-0.097h3.036c0,1.508,0.554,2.654,1.663,3.439c1.109,0.786,2.481,1.179,4.118,1.179
			c1.604,0,2.875-0.337,3.811-1.011C185.009,222.694,185.477,221.779,185.477,220.623z"/>
		<path fill="#999999" d="M196.894,204.857v4.215h3.31v2.357h-3.31v10.609c0,0.817,0.169,1.394,0.508,1.728
			c0.339,0.334,0.789,0.5,1.349,0.5c0.183,0,0.385-0.021,0.605-0.064c0.221-0.043,0.417-0.097,0.589-0.161l0.42,2.18
			c-0.237,0.194-0.584,0.353-1.042,0.477c-0.458,0.124-0.918,0.186-1.381,0.186c-1.292,0-2.32-0.39-3.084-1.171
			c-0.765-0.78-1.146-2.005-1.146-3.673v-10.609h-2.778v-2.357h2.778v-4.215H196.894z"/>
		<path fill="#999999" d="M211.378,226.883c-2.433,0-4.368-0.81-5.805-2.43s-2.156-3.723-2.156-6.306v-0.711
			c0-2.487,0.74-4.557,2.22-6.209s3.232-2.479,5.256-2.479c2.357,0,4.139,0.71,5.345,2.132c1.206,1.421,1.809,3.315,1.809,5.684
			v1.986h-11.335l-0.049,0.08c0.032,1.675,0.458,3.052,1.276,4.131c0.818,1.079,1.964,1.618,3.439,1.618
			c1.076,0,2.021-0.153,2.834-0.46c0.813-0.307,1.515-0.729,2.107-1.268l1.243,2.069c-0.625,0.617-1.448,1.132-2.471,1.544
			C214.07,226.677,212.832,226.883,211.378,226.883z M210.894,211.252c-1.066,0-1.976,0.448-2.729,1.344
			c-0.754,0.896-1.217,2.02-1.389,3.371l0.032,0.081h8.058v-0.418c0-1.245-0.333-2.286-1.001-3.123S212.208,211.252,210.894,211.252
			z"/>
		<path fill="#999999" d="M232.354,226.544c-0.107-0.527-0.191-0.993-0.25-1.396c-0.06-0.404-0.094-0.811-0.105-1.22
			c-0.592,0.84-1.365,1.542-2.317,2.107s-1.978,0.848-3.076,0.848c-1.819,0-3.205-0.465-4.158-1.396
			c-0.953-0.931-1.429-2.215-1.429-3.852c0-1.668,0.675-2.974,2.026-3.916c1.351-0.941,3.184-1.413,5.499-1.413H232v-1.728
			c0-1.022-0.313-1.833-0.937-2.43c-0.625-0.598-1.507-0.896-2.648-0.896c-1.023,0-1.854,0.261-2.495,0.783
			c-0.641,0.522-0.961,1.149-0.961,1.881h-3.036l-0.033-0.097c-0.064-1.271,0.536-2.433,1.801-3.488
			c1.265-1.055,2.898-1.582,4.901-1.582c1.98,0,3.574,0.503,4.78,1.51c1.206,1.007,1.809,2.457,1.809,4.352v8.413
			c0,0.625,0.032,1.228,0.097,1.809c0.065,0.582,0.183,1.152,0.355,1.712H232.354z M227.074,224.202
			c1.152,0,2.191-0.295,3.117-0.886c0.926-0.59,1.528-1.267,1.809-2.028v-2.834h-3.569c-1.281,0-2.307,0.322-3.076,0.966
			c-0.77,0.645-1.154,1.401-1.154,2.271c0,0.773,0.242,1.385,0.727,1.836S226.127,224.202,227.074,224.202z"/>
		<path fill="#999999" d="M242.641,209.072l0.226,2.293c0.57-0.829,1.294-1.473,2.172-1.93c0.877-0.458,1.897-0.687,3.06-0.687
			s2.161,0.27,2.995,0.808c0.834,0.538,1.461,1.346,1.881,2.422c0.549-0.99,1.276-1.776,2.18-2.357
			c0.904-0.582,1.959-0.872,3.165-0.872c1.776,0,3.181,0.611,4.214,1.833c1.034,1.222,1.55,3.06,1.55,5.515v10.447h-3.181v-10.48
			c0-1.722-0.296-2.941-0.888-3.657c-0.592-0.716-1.475-1.073-2.648-1.073c-1.088,0-1.968,0.377-2.641,1.13
			c-0.673,0.754-1.068,1.706-1.187,2.858v0.129v11.094h-3.197v-10.48c0-1.636-0.305-2.834-0.913-3.593
			c-0.608-0.759-1.483-1.138-2.624-1.138c-0.969,0-1.766,0.199-2.39,0.597c-0.625,0.398-1.104,0.959-1.438,1.68v12.935h-3.181
			v-17.472H242.641z"/>
		<path fill="#999999" d="M293.443,205.535h-7.557v21.009h-3.181v-21.009h-7.542v-2.503h18.28V205.535z"/>
		<path fill="#999999" d="M303.521,211.882l-1.631-0.097c-0.84,0-1.549,0.199-2.125,0.597c-0.576,0.398-1.02,0.959-1.332,1.68
			v12.482h-3.182v-17.472h2.843l0.308,2.551c0.494-0.904,1.105-1.609,1.832-2.115s1.564-0.759,2.512-0.759
			c0.236,0,0.463,0.019,0.678,0.057c0.215,0.037,0.393,0.078,0.533,0.121L303.521,211.882z"/>
		<path fill="#999999" d="M317.327,226.544c-0.109-0.527-0.191-0.993-0.252-1.396c-0.059-0.404-0.094-0.811-0.104-1.22
			c-0.592,0.84-1.365,1.542-2.318,2.107s-1.979,0.848-3.076,0.848c-1.818,0-3.205-0.465-4.158-1.396
			c-0.951-0.931-1.428-2.215-1.428-3.852c0-1.668,0.674-2.974,2.025-3.916c1.352-0.941,3.184-1.413,5.498-1.413h3.457v-1.728
			c0-1.022-0.313-1.833-0.938-2.43c-0.625-0.598-1.508-0.896-2.648-0.896c-1.021,0-1.854,0.261-2.494,0.783
			s-0.961,1.149-0.961,1.881h-3.035l-0.033-0.097c-0.064-1.271,0.535-2.433,1.801-3.488c1.266-1.055,2.898-1.582,4.9-1.582
			c1.98,0,3.574,0.503,4.779,1.51c1.207,1.007,1.809,2.457,1.809,4.352v8.413c0,0.625,0.033,1.228,0.098,1.809
			c0.064,0.582,0.184,1.152,0.355,1.712H317.327z M312.046,224.202c1.152,0,2.191-0.295,3.117-0.886
			c0.926-0.59,1.527-1.267,1.809-2.028v-2.834h-3.568c-1.281,0-2.307,0.322-3.076,0.966c-0.771,0.645-1.156,1.401-1.156,2.271
			c0,0.773,0.242,1.385,0.727,1.836S311.099,224.202,312.046,224.202z"/>
		<path fill="#999999" d="M324.044,218.131c0-2.81,0.6-5.076,1.801-6.798c1.199-1.723,2.883-2.584,5.047-2.584
			c1.021,0,1.93,0.188,2.721,0.565s1.467,0.926,2.025,1.646v-9.607h3.182v25.19h-2.6l-0.371-2.147
			c-0.57,0.818-1.271,1.437-2.1,1.856c-0.83,0.42-1.793,0.63-2.891,0.63c-2.131,0-3.801-0.772-5.006-2.317
			c-1.205-1.544-1.809-3.576-1.809-6.096V218.131z M327.226,218.469c0,1.766,0.359,3.179,1.082,4.239
			c0.721,1.061,1.84,1.591,3.357,1.591c0.947,0,1.744-0.216,2.391-0.646s1.174-1.033,1.582-1.809v-8.154
			c-0.408-0.722-0.939-1.295-1.59-1.72c-0.652-0.426-1.436-0.638-2.35-0.638c-1.529,0-2.656,0.629-3.383,1.889
			s-1.09,2.896-1.09,4.909V218.469z"/>
		<path fill="#999999" d="M350.817,226.883c-2.432,0-4.367-0.81-5.805-2.43s-2.156-3.723-2.156-6.306v-0.711
			c0-2.487,0.74-4.557,2.221-6.209s3.232-2.479,5.256-2.479c2.357,0,4.141,0.71,5.346,2.132c1.205,1.421,1.809,3.315,1.809,5.684
			v1.986h-11.336l-0.049,0.08c0.033,1.675,0.457,3.052,1.275,4.131s1.965,1.618,3.439,1.618c1.076,0,2.021-0.153,2.834-0.46
			s1.516-0.729,2.107-1.268l1.244,2.069c-0.625,0.617-1.449,1.132-2.471,1.544C353.509,226.677,352.271,226.883,350.817,226.883z
			 M350.333,211.252c-1.064,0-1.975,0.448-2.729,1.344s-1.217,2.02-1.389,3.371l0.031,0.081h8.059v-0.418
			c0-1.245-0.334-2.286-1-3.123C352.638,211.67,351.647,211.252,350.333,211.252z"/>
		<path fill="#999999" d="M387.054,203.032v15.938c0,2.563-0.832,4.521-2.496,5.878c-1.662,1.356-3.834,2.034-6.516,2.034
			c-2.582,0-4.68-0.681-6.289-2.043c-1.609-1.361-2.414-3.318-2.414-5.869v-15.938h3.182v15.926c0,1.775,0.506,3.123,1.518,4.042
			c1.012,0.92,2.348,1.38,4.004,1.38c1.744,0,3.152-0.46,4.223-1.38c1.072-0.919,1.607-2.267,1.607-4.042v-15.926H387.054z"/>
		<path fill="#999999" d="M395.435,216.354v10.189h-3.182v-23.495h8.51c2.572,0,4.537,0.57,5.895,1.712
			c1.355,1.141,2.035,2.799,2.035,4.973c0,1.206-0.316,2.256-0.945,3.149c-0.631,0.894-1.549,1.604-2.754,2.132
			c1.293,0.42,2.221,1.101,2.785,2.042c0.566,0.942,0.848,2.107,0.848,3.496v2.213c0,0.731,0.082,1.389,0.242,1.97
			c0.162,0.581,0.441,1.056,0.84,1.421v0.388h-3.277c-0.42-0.366-0.689-0.904-0.807-1.615c-0.119-0.71-0.178-1.442-0.178-2.195
			v-2.148c0-1.27-0.371-2.293-1.115-3.067c-0.742-0.775-1.738-1.163-2.986-1.163H395.435z M395.435,213.851h5.006
			c1.797,0,3.092-0.341,3.883-1.023s1.188-1.722,1.188-3.118c0-1.322-0.385-2.346-1.154-3.07c-0.77-0.726-1.969-1.088-3.594-1.088
			h-5.328V213.851z"/>
		<path fill="#999999" d="M417.347,224.041h11.127v2.503h-14.309v-23.512h3.182V224.041z"/>
	</g>
	<path id="Header" fill="#02A4D9" d="M595.28,36.745c0,10.146-8.225,18.373-18.373,18.373H18.373C8.228,55.118,0,46.89,0,36.745
		V18.372C0,8.226,8.228,0,18.373,0h558.534c10.148,0,18.373,8.227,18.373,18.372V36.745z"/>
	<g>
		<path fill="#FFFFFF" d="M27.27,29.975v10.478h-3.535V14.329h9.994c2.787,0,4.952,0.718,6.495,2.153
			c1.543,1.435,2.315,3.325,2.315,5.669c0,2.381-0.771,4.279-2.315,5.697c-1.543,1.417-3.708,2.126-6.495,2.126H27.27z
			 M27.27,27.194h6.459c1.77,0,3.092-0.475,3.965-1.424s1.31-2.146,1.31-3.591s-0.439-2.651-1.319-3.618s-2.198-1.451-3.956-1.451
			H27.27V27.194z"/>
		<path fill="#FFFFFF" d="M55.797,24.162l-1.812-0.108c-0.933,0-1.72,0.222-2.359,0.664c-0.64,0.443-1.133,1.065-1.48,1.866v13.869
			h-3.535V21.04h3.158l0.341,2.835c0.55-1.005,1.229-1.788,2.037-2.351c0.807-0.562,1.737-0.843,2.79-0.843
			c0.263,0,0.514,0.021,0.753,0.063s0.437,0.087,0.592,0.134L55.797,24.162z"/>
		<path fill="#FFFFFF" d="M58.022,30.567c0-2.871,0.777-5.236,2.333-7.096c1.555-1.86,3.666-2.79,6.333-2.79
			c2.691,0,4.818,0.927,6.379,2.781c1.561,1.854,2.341,4.223,2.341,7.105v0.395c0,2.895-0.778,5.263-2.333,7.105
			c-1.555,1.842-3.672,2.763-6.352,2.763c-2.68,0-4.799-0.924-6.36-2.772c-1.561-1.848-2.342-4.213-2.342-7.096V30.567z
			 M61.557,30.953c0,2.055,0.434,3.751,1.301,5.089s2.156,2.007,3.867,2.007c1.687,0,2.966-0.669,3.84-2.007
			c0.873-1.338,1.31-3.035,1.31-5.089v-0.395c0-2.031-0.439-3.721-1.319-5.071c-0.879-1.35-2.168-2.025-3.867-2.025
			c-1.687,0-2.963,0.675-3.831,2.025s-1.301,3.041-1.301,5.071V30.953z"/>
		<path fill="#FFFFFF" d="M81.204,40.453V23.659h-3.032v-2.62h3.032v-2.458c0-2.069,0.541-3.669,1.624-4.799
			s2.593-1.696,4.531-1.696c0.406,0,0.816,0.033,1.229,0.099c0.413,0.066,0.87,0.159,1.373,0.278l-0.431,2.691
			c-0.215-0.048-0.476-0.09-0.781-0.126c-0.305-0.036-0.625-0.054-0.96-0.054c-1.029,0-1.794,0.308-2.296,0.924
			s-0.753,1.51-0.753,2.682v2.458h4.037v2.62h-4.037v16.794H81.204z"/>
		<path fill="#FFFFFF" d="M96.239,16.07h-3.534v-3.606h3.534V16.07z M96.239,40.453h-3.534V21.04h3.534V40.453z"/>
		<path fill="#FFFFFF" d="M105.498,40.453h-3.534v-27.99h3.534V40.453z"/>
		<path fill="#FFFFFF" d="M118.99,40.83c-2.703,0-4.853-0.9-6.45-2.701c-1.597-1.8-2.395-4.135-2.395-7.006v-0.79
			c0-2.763,0.822-5.063,2.467-6.898s3.591-2.754,5.84-2.754c2.62,0,4.599,0.79,5.939,2.369c1.339,1.579,2.009,3.684,2.009,6.315
			v2.207h-12.595l-0.054,0.089c0.036,1.861,0.508,3.391,1.417,4.589c0.909,1.199,2.183,1.798,3.821,1.798
			c1.196,0,2.246-0.17,3.149-0.511s1.684-0.81,2.342-1.409l1.381,2.299c-0.694,0.686-1.609,1.258-2.745,1.715
			C121.98,40.601,120.605,40.83,118.99,40.83z M118.452,23.462c-1.184,0-2.195,0.498-3.032,1.493
			c-0.837,0.996-1.352,2.244-1.543,3.746l0.036,0.089h8.953v-0.465c0-1.383-0.371-2.539-1.112-3.469
			C121.011,23.927,119.911,23.462,118.452,23.462z"/>
	</g>
</g>
</svg>
