<?xml version="1.0" encoding="utf-8"?>
<!-- Generator: Adobe Illustrator 14.0.0, SVG Export Plug-In . SVG Version: 6.00 Build 43363)  -->
<svg version="1.2" baseProfile="tiny" id="Layer_1" xmlns="http://www.w3.org/2000/svg" xmlns:xlink="http://www.w3.org/1999/xlink"
	 x="0px" y="0px" width="595.28px" height="268.795px" viewBox="0 0 595.28 268.795" xml:space="preserve">
<g id="_x23_2">
	<path id="Body_1_" fill="#E6E6E6" d="M588.528,253.147c0,8.638-6.754,15.647-15.086,15.647H25.332
		c-8.328,0-15.084-7.006-15.084-15.647V50.614h578.281V253.147z"/>
	<path fill="#666666" d="M192.55,242.088c0,0,0-6.008,0-8.581c0-8.502-11.801-15.16-30.055-20.658
		c-7.961-2.396-26.696-7.526-26.696-7.526v-15.916c0,0,6.677-7.583,11.831-21.908c0,0,10.95-3.019,10.95-13.365
		c0-6.473-4.647-7.95-4.647-7.95c0.514-5.426,0.238-11.343,0.17-15.923c-0.11-7.73-0.688-13.418-1.882-18.114
		c-4.64-18.229-31.688-21.21-36.562-21.21c-4.875,0-31.925,2.981-36.562,21.21c-1.194,4.696-1.772,10.384-1.881,18.114
		c-0.068,4.576-0.344,10.497,0.17,15.923c0,0-4.648,1.478-4.648,7.95c0,10.347,10.951,13.365,10.951,13.365
		c5.154,14.325,11.831,21.908,11.831,21.908v15.916c0,0-18.734,5.131-26.696,7.526c-18.254,5.498-30.055,12.156-30.055,20.658
		c0,2.573,0,8.581,0,8.581H192.55L192.55,242.088z"/>
	<g>
		<g>
			<polygon fill="#666666" points="233.691,182.563 291.167,182.563 291.167,192.523 324.483,173.279 291.167,154.046 
				291.167,164.003 233.691,164.003 			"/>
		</g>
	</g>
	<g>
		<rect x="362.608" y="231.439" fill="#666666" width="185.27" height="11.124"/>
		<polygon fill="#666666" points="414.991,140.425 414.991,129.5 373.729,129.5 373.729,140.425 382.091,140.425 382.091,212.429 
			373.729,212.429 373.729,223.349 414.991,223.349 414.991,212.429 407.241,212.429 407.241,140.425 		"/>
		<polygon fill="#666666" points="475.872,140.425 475.872,129.5 434.614,129.5 434.614,140.425 442.968,140.425 442.968,212.429 
			434.614,212.429 434.614,223.349 475.872,223.349 475.872,212.429 468.122,212.429 468.122,140.425 		"/>
		<polygon fill="#666666" points="536.882,140.425 536.882,129.5 495.62,129.5 495.62,140.425 503.981,140.425 503.981,212.429 
			495.62,212.429 495.62,223.349 536.882,223.349 536.882,212.429 529.132,212.429 529.132,140.425 		"/>
		<polygon fill="#666666" points="547.878,121.667 362.608,121.667 362.608,106.655 455.241,80.11 547.878,106.655 		"/>
	</g>
	<path id="Header_1_" fill="#02A4D9" d="M595.28,37.786c0,10.433-8.457,18.894-18.893,18.894H18.893C8.46,56.679,0,48.219,0,37.786
		V18.893C0,8.461,8.46,0,18.893,0h557.495c10.436,0,18.893,8.461,18.893,18.894V37.786z"/>
	<g>
		<path fill="#FFFFFF" d="M24.407,41.599V14.736h8.248c3.518,0,6.34,1.079,8.469,3.238c2.127,2.159,3.192,4.948,3.192,8.367v3.671
			c0,3.432-1.064,6.221-3.192,8.367c-2.128,2.147-4.951,3.22-8.469,3.22H24.407z M28.042,17.595V38.74h4.613
			c2.484,0,4.443-0.817,5.876-2.452c1.433-1.634,2.149-3.729,2.149-6.286v-3.705c0-2.532-0.717-4.615-2.149-6.249
			c-1.433-1.635-3.392-2.452-5.876-2.452H28.042z"/>
		<path fill="#FFFFFF" d="M56.898,41.987c-2.78,0-4.991-0.926-6.633-2.777s-2.463-4.253-2.463-7.205v-0.812
			c0-2.841,0.845-5.206,2.537-7.094s3.693-2.832,6.006-2.832c2.693,0,4.729,0.812,6.107,2.436c1.377,1.624,2.066,3.789,2.066,6.494
			v2.27H51.566l-0.055,0.092c0.037,1.914,0.522,3.487,1.458,4.72c0.935,1.232,2.245,1.849,3.93,1.849
			c1.23,0,2.309-0.175,3.238-0.526c0.928-0.351,1.731-0.833,2.408-1.448l1.42,2.364c-0.713,0.706-1.654,1.293-2.823,1.764
			C59.973,41.752,58.559,41.987,56.898,41.987z M56.345,24.127c-1.218,0-2.257,0.512-3.118,1.535
			c-0.861,1.024-1.39,2.308-1.587,3.853l0.037,0.092h9.207v-0.478c0-1.422-0.381-2.611-1.144-3.567S57.845,24.127,56.345,24.127z"/>
		<path fill="#FFFFFF" d="M85.606,32.374c0,2.878-0.689,5.2-2.066,6.965c-1.378,1.765-3.278,2.648-5.701,2.648
			c-1.23,0-2.31-0.207-3.238-0.618c-0.929-0.412-1.719-1.03-2.371-1.854v9.76h-3.635V21.636h2.786l0.572,2.583
			c0.652-0.959,1.464-1.691,2.436-2.196s2.104-0.756,3.395-0.756c2.472,0,4.394,0.981,5.766,2.943
			c1.371,1.962,2.057,4.554,2.057,7.777V32.374z M81.972,31.977c0-2.26-0.446-4.118-1.337-5.574
			c-0.892-1.456-2.205-2.184-3.939-2.184c-1.045,0-1.937,0.236-2.675,0.709c-0.738,0.473-1.334,1.121-1.79,1.944v9.638
			c0.455,0.823,1.052,1.465,1.79,1.925c0.738,0.461,1.642,0.691,2.712,0.691c1.722,0,3.026-0.63,3.912-1.889
			c0.885-1.259,1.328-2.883,1.328-4.874V31.977z"/>
		<path fill="#FFFFFF" d="M89.223,31.433c0-2.952,0.799-5.384,2.398-7.297s3.77-2.869,6.513-2.869c2.768,0,4.954,0.953,6.559,2.86
			c1.605,1.907,2.408,4.342,2.408,7.306v0.406c0,2.977-0.8,5.413-2.398,7.306c-1.599,1.895-3.776,2.842-6.532,2.842
			s-4.935-0.95-6.541-2.851c-1.605-1.9-2.408-4.333-2.408-7.297V31.433z M92.857,31.83c0,2.113,0.446,3.858,1.338,5.233
			c0.892,1.376,2.217,2.064,3.976,2.064c1.734,0,3.05-0.688,3.949-2.064c0.897-1.375,1.347-3.121,1.347-5.233v-0.405
			c0-2.088-0.452-3.827-1.356-5.215c-0.904-1.388-2.229-2.082-3.976-2.082c-1.734,0-3.047,0.694-3.939,2.082
			c-0.892,1.389-1.338,3.127-1.338,5.215V31.83z"/>
		<path fill="#FFFFFF" d="M123.153,36.286c0-0.8-0.305-1.458-0.914-1.974s-1.762-0.966-3.459-1.347
			c-2.423-0.528-4.247-1.243-5.47-2.146c-1.224-0.902-1.836-2.134-1.836-3.693c0-1.621,0.689-3.002,2.066-4.145
			c1.377-1.143,3.173-1.713,5.388-1.713c2.325,0,4.172,0.597,5.544,1.79c1.372,1.193,2.026,2.645,1.965,4.354l-0.037,0.11h-3.469
			c0-0.873-0.366-1.657-1.098-2.352s-1.701-1.042-2.906-1.042c-1.292,0-2.251,0.283-2.878,0.849s-0.941,1.249-0.941,2.048
			c0,0.788,0.277,1.409,0.83,1.863c0.554,0.456,1.679,0.861,3.376,1.218c2.521,0.542,4.397,1.276,5.627,2.205
			s1.845,2.174,1.845,3.736c0,1.771-0.717,3.205-2.149,4.299c-1.433,1.095-3.306,1.642-5.618,1.642
			c-2.546,0-4.551-0.646-6.015-1.938s-2.158-2.798-2.084-4.521l0.037-0.11h3.469c0.062,1.285,0.541,2.225,1.439,2.818
			c0.898,0.593,1.95,0.89,3.155,0.89c1.292,0,2.303-0.261,3.035-0.784S123.153,37.135,123.153,36.286z"/>
		<path fill="#FFFFFF" d="M135.238,16.526h-3.635v-3.708h3.635V16.526z M135.238,41.599h-3.635V21.636h3.635V41.599z"/>
		<path fill="#FFFFFF" d="M145.625,16.821v4.816h3.782v2.693h-3.782v12.122c0,0.935,0.193,1.593,0.581,1.974
			c0.387,0.381,0.901,0.572,1.541,0.572c0.209,0,0.439-0.024,0.692-0.074c0.252-0.049,0.477-0.111,0.673-0.185l0.48,2.491
			c-0.271,0.222-0.667,0.403-1.19,0.544c-0.523,0.141-1.049,0.212-1.578,0.212c-1.476,0-2.651-0.446-3.524-1.338
			c-0.874-0.892-1.31-2.291-1.31-4.197V24.33h-3.173v-2.693h3.173v-4.816H145.625z"/>
	</g>
</g>
</svg>
