<?xml version="1.0" encoding="utf-8"?>
<!-- Generator: Adobe Illustrator 14.0.0, SVG Export Plug-In . SVG Version: 6.00 Build 43363)  -->
<svg version="1.2" baseProfile="tiny" id="Layer_1" xmlns="http://www.w3.org/2000/svg" xmlns:xlink="http://www.w3.org/1999/xlink"
	 x="0px" y="0px" width="595.28px" height="342.721px" viewBox="0 0 595.28 342.721" xml:space="preserve">
<g>
	<path id="Body_2_" fill="#E6E6E6" d="M586.411,322.171c0,11.35-8.867,20.55-19.805,20.55H33.268c-10.937,0-19.81-9.2-19.81-20.55
		V66.47h572.949v255.7H586.411z"/>
	<path fill="#257FB0" d="M218.2,306.321c0,5.479-4.446,9.925-9.924,9.925H59.404c-5.479,0-9.925-4.446-9.925-9.925V112.789
		c0-5.483,4.446-9.925,9.925-9.925h148.871c5.479,0,9.924,4.441,9.924,9.925V306.321z"/>
	<g>
		<path fill="#FFFFFF" d="M89.594,124.772h-9.072v25.219h-3.819v-25.219h-9.052v-3.005h21.943V124.772z"/>
		<path fill="#FFFFFF" d="M110.49,136.906h-12.93v10.08h14.907v3.004H93.742v-28.224h18.512v3.005H97.561v9.13h12.93V136.906z"/>
		<path fill="#FFFFFF" d="M132.239,142.721h-11.824l-2.675,7.269h-3.896l10.913-28.224h3.276l10.739,28.224h-3.896L132.239,142.721z
			 M121.597,139.523h9.498l-4.652-12.852h-0.116L121.597,139.523z"/>
		<path fill="#FFFFFF" d="M147.533,121.767l8.994,22.932h0.116l8.995-22.932h4.885v28.224h-3.819v-11.166l0.388-11.475l-0.097-0.02
			l-9.149,22.66h-2.54l-9.11-22.602l-0.097,0.02l0.368,11.417v11.166h-3.818v-28.224H147.533z"/>
		<path fill="#FFFFFF" d="M197.099,149.99h-3.819v-24.501l-5.776,0.077v-2.752l9.595-1.047V149.99z"/>
	</g>
	<rect x="69.329" y="166.839" fill="#FFFFFF" width="129.021" height="129.021"/>
	<g id="Team2">
		<path fill="#257FB0" d="M552.817,306.321c0,5.479-4.447,9.925-9.926,9.925H394.021c-5.482,0-9.924-4.446-9.924-9.925V112.789
			c0-5.483,4.441-9.925,9.924-9.925h148.871c5.479,0,9.926,4.441,9.926,9.925V306.321z"/>
		<g>
			<path fill="#FFFFFF" d="M421.39,124.772h-9.071v25.219H408.5v-25.219h-9.053v-3.005h21.942V124.772z"/>
			<path fill="#FFFFFF" d="M442.286,136.906h-12.93v10.08h14.906v3.004h-18.725v-28.224h18.512v3.005h-14.693v9.13h12.93V136.906z"
				/>
			<path fill="#FFFFFF" d="M464.035,142.721h-11.824l-2.675,7.269h-3.896l10.913-28.224h3.276l10.738,28.224h-3.896L464.035,142.721
				z M453.394,139.523h9.498l-4.652-12.852h-0.116L453.394,139.523z"/>
			<path fill="#FFFFFF" d="M479.329,121.767l8.994,22.932h0.116l8.994-22.932h4.885v28.224H498.5v-11.166l0.388-11.475l-0.097-0.02
				l-9.149,22.66h-2.539l-9.111-22.602l-0.097,0.02l0.368,11.417v11.166h-3.818v-28.224H479.329z"/>
			<path fill="#FFFFFF" d="M536.28,149.99h-18.299v-2.634l9.246-10.257c1.654-1.848,2.775-3.314,3.363-4.4
				c0.588-1.086,0.882-2.197,0.882-3.334c0-1.408-0.41-2.594-1.23-3.557s-1.909-1.444-3.267-1.444c-1.951,0-3.389,0.501-4.313,1.502
				s-1.386,2.407-1.386,4.216h-3.664l-0.039-0.116c-0.064-2.429,0.743-4.471,2.424-6.125c1.68-1.654,4.006-2.481,6.978-2.481
				c2.533,0,4.553,0.74,6.058,2.219c1.506,1.48,2.259,3.363,2.259,5.65c0,1.538-0.456,3.079-1.367,4.624s-2.187,3.202-3.828,4.972
				l-7.424,8.064l0.038,0.097h13.569V149.99z"/>
		</g>
		<rect x="403.946" y="166.839" fill="#FFFFFF" width="129.021" height="129.021"/>
		<polygon fill="#5DBB4E" points="455.296,240.118 428.981,213.802 411.435,231.344 437.755,257.66 446.522,266.428 
			455.296,275.202 525.479,205.029 507.933,187.477 		"/>
	</g>
	<g>
		<path fill="#999999" d="M287.583,195.881l3.772,10.76c0.635,1.787,1.151,3.375,1.548,4.963h0.119
			c0.437-1.588,0.993-3.176,1.628-4.963l3.732-10.76h3.652l-7.543,19.217h-3.335l-7.306-19.217H287.583z"/>
		<path fill="#999999" d="M304.613,211.564c1.072,0.635,2.898,1.35,4.646,1.35c2.501,0,3.692-1.23,3.692-2.858
			c0-1.668-0.993-2.541-3.534-3.494c-3.493-1.271-5.121-3.137-5.121-5.439c0-3.097,2.541-5.638,6.63-5.638
			c1.946,0,3.653,0.516,4.686,1.191l-0.834,2.541c-0.754-0.477-2.144-1.152-3.931-1.152c-2.064,0-3.176,1.191-3.176,2.621
			c0,1.588,1.111,2.303,3.612,3.295c3.296,1.231,5.043,2.898,5.043,5.757c0,3.415-2.66,5.797-7.147,5.797
			c-2.104,0-4.049-0.556-5.399-1.35L304.613,211.564z"/>
	</g>
	<path id="Header_2_" fill="#02A4D9" d="M595.28,49.623c0,13.701-11.105,24.813-24.813,24.813H24.812
		C11.111,74.435,0,63.324,0,49.623V24.811C0,11.11,11.111,0,24.812,0h545.656c13.707,0,24.813,11.11,24.813,24.812V49.623z"/>
	<g>
		<path fill="#FFFFFF" d="M32.051,54.627V19.348H43.56c3.683,0,6.566,0.796,8.65,2.387c2.084,1.591,3.126,3.978,3.126,7.16
			c0,1.567-0.501,2.968-1.502,4.204c-1.002,1.236-2.318,2.153-3.95,2.75c2.132,0.452,3.808,1.494,5.028,3.125
			c1.22,1.632,1.83,3.53,1.83,5.694c0,3.231-1.046,5.698-3.138,7.402s-4.931,2.556-8.517,2.556H32.051z M36.824,34.346h7.729
			c1.777,0,3.223-0.488,4.337-1.466c1.114-0.977,1.672-2.338,1.672-4.083c0-1.906-0.602-3.332-1.805-4.276
			c-1.204-0.945-2.936-1.417-5.198-1.417h-6.736V34.346z M36.824,38.102v12.769h8.263c2.165,0,3.853-0.535,5.064-1.605
			c1.211-1.07,1.817-2.587,1.817-4.55c0-2.06-0.505-3.677-1.515-4.852s-2.564-1.762-4.664-1.762H36.824z"/>
		<path fill="#FFFFFF" d="M73.751,55.136c-3.651,0-6.554-1.215-8.711-3.646c-2.156-2.431-3.234-5.585-3.234-9.462v-1.066
			c0-3.731,1.11-6.836,3.332-9.316c2.221-2.479,4.85-3.719,7.887-3.719c3.538,0,6.211,1.066,8.021,3.198
			c1.809,2.132,2.714,4.976,2.714,8.529v2.98h-17.01l-0.073,0.121c0.048,2.513,0.687,4.579,1.914,6.198
			c1.228,1.619,2.948,2.428,5.161,2.428c1.615,0,3.033-0.23,4.252-0.69s2.273-1.094,3.162-1.902l1.866,3.105
			c-0.937,0.927-2.173,1.699-3.707,2.316C77.789,54.827,75.932,55.136,73.751,55.136z M73.024,31.681
			c-1.599,0-2.964,0.673-4.095,2.017c-1.131,1.344-1.826,3.031-2.084,5.059l0.049,0.121h12.091V38.25
			c0-1.868-0.501-3.429-1.502-4.685C76.481,32.309,74.995,31.681,73.024,31.681z"/>
		<path fill="#FFFFFF" d="M95.413,22.086v6.324h4.967v3.538h-4.967v15.919c0,1.228,0.254,2.092,0.763,2.593
			c0.509,0.501,1.183,0.751,2.023,0.751c0.274,0,0.577-0.032,0.909-0.097c0.331-0.064,0.626-0.146,0.884-0.243l0.63,3.271
			c-0.355,0.291-0.876,0.529-1.563,0.714c-0.687,0.186-1.377,0.279-2.072,0.279c-1.938,0-3.481-0.585-4.628-1.757
			c-1.147-1.171-1.721-3.008-1.721-5.512V31.948h-4.167V28.41h4.167v-6.324H95.413z"/>
		<path fill="#FFFFFF" d="M112.568,22.086v6.324h4.967v3.538h-4.967v15.919c0,1.228,0.254,2.092,0.763,2.593
			c0.509,0.501,1.183,0.751,2.023,0.751c0.274,0,0.577-0.032,0.909-0.097c0.331-0.064,0.626-0.146,0.884-0.243l0.63,3.271
			c-0.355,0.291-0.876,0.529-1.563,0.714c-0.687,0.186-1.377,0.279-2.072,0.279c-1.938,0-3.481-0.585-4.628-1.757
			c-1.147-1.171-1.721-3.008-1.721-5.512V31.948h-4.167V28.41h4.167v-6.324H112.568z"/>
		<path fill="#FFFFFF" d="M128.584,21.698h-4.773v-4.871h4.773V21.698z M128.584,54.627h-4.773V28.41h4.773V54.627z"/>
		<path fill="#FFFFFF" d="M140.19,28.41l0.339,3.901c0.872-1.389,1.966-2.467,3.283-3.235c1.316-0.767,2.814-1.151,4.495-1.151
			c2.827,0,5.016,0.828,6.566,2.483c1.551,1.656,2.326,4.212,2.326,7.669v16.549h-4.773V38.175c0-2.31-0.457-3.95-1.369-4.919
			s-2.306-1.454-4.18-1.454c-1.373,0-2.589,0.331-3.646,0.993c-1.058,0.663-1.902,1.567-2.532,2.714v19.118h-4.773V28.41H140.19z"/>
		<path fill="#FFFFFF" d="M163.088,42.003c0-4.216,0.921-7.616,2.762-10.201c1.842-2.584,4.386-3.877,7.633-3.877
			c1.664,0,3.125,0.335,4.386,1.005c1.26,0.67,2.31,1.636,3.15,2.896l0.582-3.417h3.804v26.363c0,3.359-0.978,5.94-2.932,7.741
			s-4.773,2.702-8.456,2.702c-1.26,0-2.621-0.174-4.083-0.521c-1.462-0.348-2.75-0.82-3.865-1.417l1.211-3.708
			c0.856,0.485,1.89,0.876,3.102,1.175c1.211,0.299,2.407,0.448,3.586,0.448c2.326,0,4.018-0.529,5.077-1.587
			c1.058-1.059,1.587-2.669,1.587-4.834v-2.956c-0.856,1.099-1.882,1.926-3.077,2.483c-1.196,0.557-2.568,0.836-4.119,0.836
			c-3.215,0-5.743-1.163-7.584-3.489c-1.841-2.326-2.762-5.371-2.762-9.135V42.003z M167.861,42.512
			c0,2.633,0.558,4.749,1.672,6.349c1.115,1.599,2.811,2.398,5.088,2.398c1.438,0,2.641-0.327,3.61-0.981
			c0.969-0.654,1.769-1.579,2.399-2.774V35.437c-0.614-1.115-1.414-1.999-2.399-2.653s-2.173-0.981-3.562-0.981
			c-2.277,0-3.982,0.953-5.112,2.859c-1.131,1.906-1.696,4.354-1.696,7.342V42.512z"/>
	</g>
</g>
</svg>
