<?xml version="1.0" encoding="utf-8"?>
<!-- Generator: Adobe Illustrator 14.0.0, SVG Export Plug-In . SVG Version: 6.00 Build 43363)  -->
<svg version="1.2" baseProfile="tiny" id="Layer_1" xmlns="http://www.w3.org/2000/svg" xmlns:xlink="http://www.w3.org/1999/xlink"
	 x="0px" y="0px" width="595.28px" height="355.015px" viewBox="0 0 595.28 355.015" xml:space="preserve">
<g id="_x23_4">
	<path id="Body_3_" fill="#E6E6E6" d="M588.714,339.798c0,8.404-6.566,15.217-14.67,15.217H24.634
		c-8.099,0-14.669-6.813-14.669-15.217V49.22H588.71v290.577H588.714z"/>
	<circle fill="#CCCCCC" cx="127.64" cy="140.889" r="62.111"/>
	<path fill="#CCCCCC" d="M193.87,224.876c0,4.057-3.292,7.349-7.349,7.349H61.586c-4.057,0-7.349-3.292-7.349-7.349l0,0
		c0-4.061,3.292-7.35,7.349-7.35h124.935C190.582,217.526,193.87,220.811,193.87,224.876L193.87,224.876z"/>
	<path fill="#CCCCCC" d="M175.497,241.323c0,3.043-2.465,5.512-5.512,5.512H78.121c-3.046,0-5.512-2.469-5.512-5.512l0,0
		c0-3.043,2.466-5.512,5.512-5.512h91.864C173.032,235.811,175.497,238.28,175.497,241.323L175.497,241.323z"/>
	<circle fill="#CCCCCC" cx="475.386" cy="140.889" r="62.111"/>
	<path fill="#CCCCCC" d="M541.616,224.876c0,4.057-3.293,7.349-7.35,7.349H409.331c-4.059,0-7.348-3.292-7.348-7.349l0,0
		c0-4.061,3.289-7.35,7.348-7.35h124.936C538.323,217.526,541.616,220.811,541.616,224.876L541.616,224.876z"/>
	<path fill="#CCCCCC" d="M523.243,241.323c0,3.043-2.469,5.512-5.512,5.512h-91.863c-3.047,0-5.512-2.469-5.512-5.512l0,0
		c0-3.043,2.465-5.512,5.512-5.512h91.863C520.778,235.811,523.243,238.28,523.243,241.323L523.243,241.323z"/>
	<g>
		<path fill="#CCCCCC" d="M291.843,143.608l2.793,7.968c0.471,1.323,0.853,2.5,1.147,3.676h0.088
			c0.324-1.176,0.735-2.353,1.206-3.676l2.764-7.968h2.706l-5.587,14.231h-2.47l-5.41-14.231H291.843z"/>
		<path fill="#CCCCCC" d="M304.454,155.223c0.794,0.47,2.146,1,3.439,1c1.853,0,2.735-0.912,2.735-2.117
			c0-1.235-0.735-1.882-2.617-2.587c-2.588-0.941-3.793-2.323-3.793-4.028c0-2.293,1.882-4.175,4.91-4.175
			c1.44,0,2.705,0.382,3.47,0.882l-0.617,1.882c-0.559-0.353-1.588-0.853-2.911-0.853c-1.529,0-2.353,0.882-2.353,1.941
			c0,1.176,0.823,1.705,2.676,2.44c2.44,0.912,3.734,2.146,3.734,4.263c0,2.529-1.97,4.293-5.293,4.293
			c-1.559,0-2.999-0.412-3.999-1L304.454,155.223z"/>
	</g>
	<path fill="#02A4D9" d="M469.073,318.353c0,6.085-4.939,11.023-11.023,11.023H149.386c-6.089,0-11.023-4.938-11.023-11.023v-22.048
		c0-6.092,4.935-11.023,11.023-11.023H458.05c6.084,0,11.023,4.932,11.023,11.023V318.353z"/>
	<g>
		<path fill="#FFFFFF" d="M200.472,311.643c0-0.951-0.359-1.748-1.077-2.39c-0.718-0.643-1.99-1.183-3.818-1.62
			c-2.21-0.527-3.936-1.305-5.175-2.331s-1.859-2.316-1.859-3.87c0-1.631,0.667-2.993,2.002-4.087
			c1.335-1.093,3.064-1.64,5.189-1.64c2.287,0,4.107,0.627,5.461,1.88c1.354,1.254,2.007,2.708,1.959,4.363l-0.029,0.087h-2.698
			c0-1.226-0.405-2.216-1.213-2.972c-0.809-0.756-1.969-1.134-3.481-1.134c-1.407,0-2.486,0.318-3.237,0.954
			c-0.751,0.637-1.127,1.467-1.127,2.49c0,0.91,0.407,1.668,1.22,2.275c0.813,0.608,2.134,1.142,3.962,1.601
			c2.201,0.546,3.875,1.35,5.023,2.411c1.148,1.063,1.723,2.378,1.723,3.947c0,1.685-0.689,3.039-2.067,4.063
			c-1.378,1.024-3.177,1.536-5.397,1.536c-2.086,0-3.931-0.567-5.534-1.701c-1.603-1.134-2.38-2.648-2.333-4.543l0.029-0.086h2.699
			c0,1.34,0.493,2.358,1.479,3.057c0.985,0.699,2.206,1.048,3.66,1.048c1.426,0,2.555-0.299,3.387-0.898
			S200.472,312.67,200.472,311.643z"/>
		<path fill="#FFFFFF" d="M209.716,303.456c0.536-0.747,1.193-1.328,1.974-1.744c0.78-0.416,1.644-0.624,2.591-0.624
			c1.655,0,2.945,0.497,3.868,1.492s1.385,2.526,1.385,4.594v9.731h-2.828v-9.761c0-1.282-0.275-2.229-0.825-2.842
			c-0.551-0.612-1.371-0.919-2.462-0.919c-0.785,0-1.495,0.185-2.131,0.553c-0.637,0.368-1.161,0.868-1.572,1.5v11.469h-2.828
			v-22.392h2.828V303.456z"/>
		<path fill="#FFFFFF" d="M222.936,308.996c0-2.296,0.622-4.188,1.866-5.677c1.244-1.487,2.933-2.231,5.067-2.231
			c2.153,0,3.854,0.741,5.103,2.225c1.249,1.483,1.874,3.378,1.874,5.684v0.316c0,2.315-0.622,4.21-1.866,5.684
			s-2.938,2.211-5.081,2.211s-3.84-0.739-5.088-2.218c-1.249-1.479-1.874-3.371-1.874-5.677V308.996z M225.764,309.305
			c0,1.644,0.347,3.001,1.041,4.071s1.725,1.605,3.093,1.605c1.349,0,2.373-0.535,3.072-1.605c0.698-1.07,1.048-2.428,1.048-4.071
			v-0.315c0-1.625-0.352-2.977-1.055-4.057s-1.734-1.62-3.093-1.62c-1.349,0-2.371,0.54-3.064,1.62s-1.041,2.432-1.041,4.057
			V309.305z"/>
		<path fill="#FFFFFF" d="M244.28,311.25l0.33,1.88h0.086l0.402-1.88l3.101-9.876h2.268l3.115,9.876l0.445,2.096h0.086l0.417-2.096
			l2.44-9.876h2.813l-4.507,15.531h-2.282l-3-9.459l-0.646-2.642l-0.086,0.015l-0.617,2.627l-2.957,9.459h-2.282l-4.507-15.531
			h2.813L244.28,311.25z"/>
		<path fill="#FFFFFF" d="M272.916,316.906h-2.828v-22.392h2.828V316.906z"/>
		<path fill="#FFFFFF" d="M280.322,297.399h-2.828v-2.885h2.828V297.399z M280.322,316.906h-2.828v-15.531h2.828V316.906z"/>
		<path fill="#FFFFFF" d="M289.853,312.326l0.244,1.091h0.086l0.273-1.091l3.574-10.952h2.885l-5.713,15.531h-2.139l-5.785-15.531
			h2.899L289.853,312.326z"/>
		<path fill="#FFFFFF" d="M305.714,317.207c-2.163,0-3.883-0.721-5.16-2.16c-1.277-1.44-1.916-3.309-1.916-5.605v-0.632
			c0-2.21,0.657-4.05,1.974-5.519c1.315-1.469,2.873-2.203,4.672-2.203c2.096,0,3.68,0.631,4.751,1.895
			c1.071,1.263,1.607,2.947,1.607,5.052v1.766h-10.076l-0.043,0.072c0.028,1.488,0.406,2.712,1.134,3.671s1.746,1.438,3.058,1.438
			c0.957,0,1.796-0.136,2.519-0.408c0.723-0.273,1.348-0.648,1.874-1.127l1.104,1.839c-0.555,0.549-1.287,1.007-2.196,1.372
			C308.105,317.024,307.006,317.207,305.714,317.207z M305.283,303.313c-0.947,0-1.756,0.398-2.426,1.194s-1.082,1.795-1.234,2.997
			l0.028,0.071h7.163v-0.372c0-1.106-0.297-2.031-0.891-2.775C307.331,303.685,306.45,303.313,305.283,303.313z"/>
		<path fill="#FFFFFF" d="M323.843,312.772c0-0.622-0.236-1.134-0.711-1.536c-0.474-0.401-1.37-0.751-2.69-1.048
			c-1.886-0.411-3.305-0.967-4.256-1.669c-0.953-0.702-1.429-1.66-1.429-2.874c0-1.261,0.536-2.336,1.607-3.225
			c1.072-0.889,2.469-1.332,4.191-1.332c1.809,0,3.246,0.464,4.313,1.392c1.066,0.929,1.576,2.058,1.528,3.388l-0.028,0.086h-2.698
			c0-0.679-0.285-1.289-0.854-1.83c-0.569-0.54-1.323-0.811-2.261-0.811c-1.005,0-1.751,0.22-2.239,0.66s-0.731,0.972-0.731,1.593
			c0,0.613,0.215,1.096,0.646,1.45s1.307,0.67,2.627,0.947c1.961,0.421,3.421,0.993,4.378,1.715
			c0.957,0.723,1.436,1.692,1.436,2.907c0,1.378-0.558,2.492-1.673,3.345c-1.114,0.852-2.571,1.277-4.37,1.277
			c-1.981,0-3.541-0.503-4.68-1.508s-1.68-2.177-1.622-3.517l0.029-0.086h2.698c0.048,1,0.421,1.73,1.119,2.192
			s1.517,0.692,2.455,0.692c1.005,0,1.791-0.203,2.361-0.609C323.558,313.965,323.843,313.432,323.843,312.772z"/>
		<path fill="#FFFFFF" d="M333.919,297.628v3.746h2.943v2.096h-2.943v9.431c0,0.728,0.151,1.239,0.452,1.536
			c0.302,0.297,0.701,0.445,1.199,0.445c0.162,0,0.342-0.02,0.538-0.058s0.371-0.086,0.523-0.144l0.374,1.938
			c-0.211,0.172-0.52,0.313-0.927,0.424c-0.406,0.109-0.815,0.165-1.227,0.165c-1.148,0-2.063-0.347-2.742-1.041
			c-0.679-0.693-1.019-1.782-1.019-3.266v-9.431h-2.469v-2.096h2.469v-3.746H333.919z"/>
		<path fill="#FFFFFF" d="M347.698,303.872l-1.449-0.086c-0.746,0-1.376,0.177-1.888,0.531c-0.512,0.354-0.906,0.852-1.185,1.492
			v11.096h-2.827v-15.531h2.526l0.272,2.269c0.44-0.804,0.983-1.431,1.629-1.881c0.646-0.449,1.39-0.674,2.232-0.674
			c0.21,0,0.411,0.017,0.603,0.05s0.35,0.069,0.474,0.107L347.698,303.872z"/>
		<path fill="#FFFFFF" d="M356.598,317.207c-2.162,0-3.883-0.721-5.16-2.16c-1.277-1.44-1.916-3.309-1.916-5.605v-0.632
			c0-2.21,0.658-4.05,1.974-5.519s2.873-2.203,4.672-2.203c2.096,0,3.68,0.631,4.752,1.895c1.071,1.263,1.607,2.947,1.607,5.052
			v1.766H352.45l-0.044,0.072c0.029,1.488,0.407,2.712,1.135,3.671c0.727,0.959,1.746,1.438,3.057,1.438
			c0.957,0,1.797-0.136,2.52-0.408c0.723-0.273,1.347-0.648,1.873-1.127l1.105,1.839c-0.556,0.549-1.287,1.007-2.196,1.372
			C358.99,317.024,357.89,317.207,356.598,317.207z M356.167,303.313c-0.947,0-1.756,0.398-2.426,1.194s-1.081,1.795-1.234,2.997
			l0.029,0.071h7.162v-0.372c0-1.106-0.297-2.031-0.89-2.775C358.215,303.685,357.335,303.313,356.167,303.313z"/>
		<path fill="#FFFFFF" d="M375.243,316.906c-0.096-0.469-0.17-0.883-0.223-1.241c-0.053-0.359-0.084-0.721-0.093-1.084
			c-0.526,0.746-1.213,1.371-2.06,1.873c-0.848,0.502-1.759,0.754-2.734,0.754c-1.617,0-2.85-0.414-3.696-1.242
			c-0.847-0.827-1.271-1.969-1.271-3.423c0-1.483,0.601-2.644,1.802-3.481c1.2-0.837,2.83-1.256,4.887-1.256h3.072v-1.535
			c0-0.909-0.277-1.63-0.833-2.161c-0.555-0.53-1.34-0.796-2.354-0.796c-0.909,0-1.648,0.231-2.218,0.696
			c-0.569,0.464-0.854,1.021-0.854,1.672h-2.698l-0.028-0.086c-0.058-1.129,0.476-2.163,1.601-3.101
			c1.124-0.938,2.576-1.406,4.356-1.406c1.76,0,3.177,0.447,4.248,1.342c1.072,0.895,1.607,2.184,1.607,3.868v7.479
			c0,0.555,0.029,1.091,0.087,1.607c0.057,0.517,0.162,1.024,0.315,1.521H375.243z M370.55,314.824c1.023,0,1.947-0.263,2.771-0.787
			c0.822-0.525,1.358-1.126,1.607-1.804v-2.52h-3.172c-1.14,0-2.051,0.286-2.734,0.859c-0.685,0.572-1.026,1.245-1.026,2.018
			c0,0.688,0.215,1.231,0.646,1.632C369.071,314.624,369.707,314.824,370.55,314.824z"/>
		<path fill="#FFFFFF" d="M384.387,301.374l0.201,2.039c0.507-0.737,1.15-1.309,1.93-1.716c0.78-0.406,1.687-0.609,2.721-0.609
			c1.033,0,1.921,0.239,2.662,0.717c0.742,0.479,1.299,1.196,1.673,2.153c0.487-0.88,1.134-1.579,1.938-2.096
			s1.741-0.774,2.813-0.774c1.579,0,2.827,0.543,3.746,1.629s1.378,2.72,1.378,4.901v9.287h-2.828v-9.315
			c0-1.531-0.263-2.615-0.789-3.251c-0.526-0.637-1.312-0.955-2.354-0.955c-0.967,0-1.749,0.335-2.348,1.005
			c-0.598,0.67-0.949,1.517-1.055,2.541v0.114v9.861h-2.842v-9.315c0-1.455-0.271-2.52-0.812-3.194
			c-0.54-0.674-1.318-1.012-2.332-1.012c-0.861,0-1.569,0.178-2.124,0.531c-0.556,0.354-0.981,0.852-1.278,1.493v11.497h-2.827
			v-15.531H384.387z"/>
		<path fill="#FFFFFF" d="M416.582,312.772c0-0.622-0.236-1.134-0.711-1.536c-0.474-0.401-1.37-0.751-2.69-1.048
			c-1.886-0.411-3.305-0.967-4.256-1.669c-0.953-0.702-1.429-1.66-1.429-2.874c0-1.261,0.536-2.336,1.607-3.225
			c1.072-0.889,2.469-1.332,4.191-1.332c1.809,0,3.246,0.464,4.313,1.392c1.066,0.929,1.576,2.058,1.528,3.388l-0.028,0.086h-2.698
			c0-0.679-0.285-1.289-0.854-1.83c-0.569-0.54-1.323-0.811-2.261-0.811c-1.005,0-1.751,0.22-2.239,0.66s-0.731,0.972-0.731,1.593
			c0,0.613,0.215,1.096,0.646,1.45s1.307,0.67,2.627,0.947c1.961,0.421,3.421,0.993,4.378,1.715
			c0.957,0.723,1.436,1.692,1.436,2.907c0,1.378-0.558,2.492-1.673,3.345c-1.114,0.852-2.571,1.277-4.37,1.277
			c-1.981,0-3.541-0.503-4.68-1.508s-1.68-2.177-1.622-3.517l0.029-0.086h2.698c0.048,1,0.421,1.73,1.119,2.192
			s1.517,0.692,2.455,0.692c1.005,0,1.791-0.203,2.361-0.609C416.297,313.965,416.582,313.432,416.582,312.772z"/>
	</g>
	<path id="Header_3_" fill="#02A4D9" d="M595.28,36.745c0,10.146-8.225,18.373-18.373,18.373H18.373C8.228,55.118,0,46.89,0,36.745
		V18.372C0,8.223,8.228,0,18.373,0h558.534c10.148,0,18.373,8.224,18.373,18.372V36.745z"/>
	<g>
		<path fill="#FFFFFF" d="M28.256,14.327l8.325,21.226h0.108l8.325-21.226h4.521v26.124h-3.534V30.116l0.359-10.622l-0.09-0.018
			l-8.469,20.975h-2.351l-8.433-20.92l-0.09,0.018l0.341,10.568v10.335h-3.535V14.327H28.256z"/>
		<path fill="#FFFFFF" d="M67.28,40.451c-0.12-0.586-0.212-1.104-0.278-1.552c-0.066-0.448-0.105-0.9-0.117-1.354
			c-0.658,0.933-1.516,1.713-2.575,2.342c-1.059,0.628-2.198,0.942-3.418,0.942c-2.021,0-3.562-0.518-4.62-1.552
			c-1.059-1.034-1.588-2.461-1.588-4.279c0-1.854,0.75-3.304,2.252-4.351c1.501-1.046,3.537-1.57,6.109-1.57h3.839v-1.92
			c0-1.136-0.347-2.036-1.041-2.7c-0.694-0.664-1.675-0.996-2.942-0.996c-1.137,0-2.061,0.29-2.772,0.87
			c-0.711,0.581-1.067,1.277-1.067,2.09H55.69l-0.036-0.108c-0.072-1.411,0.595-2.703,2-3.875c1.406-1.172,3.221-1.758,5.446-1.758
			c2.201,0,3.971,0.56,5.311,1.678c1.34,1.119,2.01,2.73,2.01,4.835v9.348c0,0.694,0.036,1.364,0.107,2.01s0.204,1.28,0.395,1.902
			H67.28z M61.414,37.849c1.28,0,2.434-0.328,3.463-0.984c1.028-0.656,1.698-1.408,2.009-2.255v-3.149H62.92
			c-1.423,0-2.563,0.358-3.418,1.074c-0.855,0.716-1.283,1.557-1.283,2.523c0,0.859,0.269,1.539,0.807,2.04
			C59.565,37.599,60.361,37.849,61.414,37.849z"/>
		<path fill="#FFFFFF" d="M80.217,16.355v4.683h3.678v2.62h-3.678v11.788c0,0.909,0.188,1.549,0.565,1.92s0.876,0.556,1.498,0.556
			c0.204,0,0.428-0.024,0.673-0.072s0.463-0.108,0.655-0.18l0.467,2.422c-0.263,0.215-0.649,0.392-1.157,0.529
			c-0.509,0.137-1.02,0.207-1.534,0.207c-1.436,0-2.578-0.434-3.427-1.301c-0.85-0.867-1.274-2.228-1.274-4.082V23.657h-3.086v-2.62
			h3.086v-4.683H80.217z"/>
		<path fill="#FFFFFF" d="M96.15,38.047c1.172,0,2.204-0.362,3.095-1.085s1.337-1.612,1.337-2.665h3.176l0.036,0.108
			c0.06,1.675-0.685,3.164-2.233,4.467c-1.549,1.304-3.353,1.956-5.41,1.956c-2.823,0-4.982-0.921-6.477-2.763
			c-1.496-1.842-2.243-4.157-2.243-6.944v-0.753c0-2.763,0.75-5.069,2.252-6.917c1.501-1.848,3.657-2.772,6.468-2.772
			c2.272,0,4.129,0.67,5.571,2.01s2.138,2.984,2.09,4.934l-0.036,0.107h-3.194c0-1.184-0.419-2.191-1.256-3.023
			c-0.837-0.832-1.896-1.247-3.176-1.247c-1.854,0-3.179,0.666-3.974,1.998c-0.796,1.332-1.193,2.966-1.193,4.901v0.752
			c0,1.983,0.395,3.635,1.184,4.955S94.284,38.047,96.15,38.047z"/>
		<path fill="#FFFFFF" d="M111.293,23.639c0.669-0.933,1.492-1.66,2.467-2.18c0.975-0.521,2.054-0.781,3.239-0.781
			c2.069,0,3.681,0.622,4.835,1.866c1.154,1.244,1.731,3.158,1.731,5.741v12.165h-3.535V28.25c0-1.603-0.344-2.787-1.032-3.553
			c-0.688-0.765-1.713-1.148-3.077-1.148c-0.981,0-1.869,0.23-2.665,0.69c-0.795,0.461-1.45,1.085-1.964,1.875v14.336h-3.535v-27.99
			h3.535V23.639z"/>
	</g>
</g>
</svg>
