<?xml version="1.0" encoding="utf-8"?>
<!-- Generator: Adobe Illustrator 14.0.0, SVG Export Plug-In . SVG Version: 6.00 Build 43363)  -->
<svg version="1.2" baseProfile="tiny" id="Layer_1" xmlns="http://www.w3.org/2000/svg" xmlns:xlink="http://www.w3.org/1999/xlink"
	 x="0px" y="0px" width="595.28px" height="268.799px" viewBox="0 0 595.28 268.799" xml:space="preserve">
<g id="_x23_5">
	<path id="Body_4_" fill="#E6E6E6" d="M588.524,253.151c0,8.634-6.754,15.647-15.078,15.647H25.332
		c-8.328,0-15.084-7.01-15.084-15.647V50.618h578.277V253.151z"/>
	<path fill="#666666" d="M556.368,242.088c0,0,0-6.008,0-8.578c0-8.501-11.801-15.159-30.051-20.657
		c-7.963-2.399-26.697-7.527-26.697-7.527v-15.919c0,0,6.678-7.58,11.832-21.904c0,0,10.949-3.02,10.949-13.365
		c0-6.473-4.643-7.95-4.643-7.95c0.51-5.426,0.238-11.343,0.17-15.927c-0.109-7.728-0.688-13.418-1.883-18.11
		c-4.643-18.229-31.691-21.21-36.564-21.21c-4.875,0-31.922,2.981-36.566,21.21c-1.193,4.692-1.771,10.383-1.881,18.11
		c-0.068,4.584-0.34,10.501,0.17,15.927c0,0-4.645,1.478-4.645,7.95c0,10.346,10.951,13.365,10.951,13.365
		c5.154,14.324,11.83,21.904,11.83,21.904v15.919c0,0-18.734,5.128-26.695,7.527c-18.25,5.498-30.051,12.156-30.051,20.657
		c0,2.57,0,8.578,0,8.578H556.368z"/>
	<g>
		<g>
			<polygon fill="#666666" points="270.354,182.567 327.831,182.567 327.831,192.523 361.151,173.283 327.831,154.043 
				327.831,164.007 270.354,164.007 			"/>
		</g>
	</g>
	<g>
		<rect x="38.772" y="231.439" fill="#666666" width="185.269" height="11.128"/>
		<polygon fill="#666666" points="91.159,140.428 91.159,129.504 49.896,129.504 49.896,140.428 58.254,140.428 58.254,212.426 
			49.896,212.426 49.896,223.349 91.159,223.349 91.159,212.426 83.405,212.426 83.405,140.428 		"/>
		<polygon fill="#666666" points="152.036,140.428 152.036,129.504 110.773,129.504 110.773,140.428 119.131,140.428 
			119.131,212.426 110.773,212.426 110.773,223.349 152.036,223.349 152.036,212.426 144.286,212.426 144.286,140.428 		"/>
		<polygon fill="#666666" points="213.045,140.428 213.045,129.504 171.783,129.504 171.783,140.428 180.141,140.428 
			180.141,212.426 171.783,212.426 171.783,223.349 213.045,223.349 213.045,212.426 205.295,212.426 205.295,140.428 		"/>
		<polygon fill="#666666" points="224.041,121.667 38.772,121.667 38.772,106.655 131.404,80.11 224.041,106.655 		"/>
	</g>
	<path id="Header_4_" fill="#02A4D9" d="M595.28,37.786c0,10.437-8.461,18.894-18.893,18.894H18.893C8.46,56.679,0,48.222,0,37.786
		V18.893C0,8.465,8.46,0,18.893,0h557.495c10.432,0,18.893,8.465,18.893,18.894V37.786z"/>
	<g>
		<path fill="#FFFFFF" d="M29.795,32.302l0.498,3.358l0.111,0.019l0.72-3.376l4.926-17.564h3.21l4.963,17.564l0.738,3.45h0.111
			l0.535-3.45l4.003-17.564h3.635l-6.476,26.863h-3.247l-5.295-18.635l-0.479-2.417h-0.111l-0.461,2.417l-5.387,18.635h-3.247
			l-6.458-26.863h3.616L29.795,32.302z"/>
		<path fill="#FFFFFF" d="M61.031,16.528h-3.635v-3.708h3.635V16.528z M61.031,41.601h-3.635V21.638h3.635V41.601z"/>
		<path fill="#FFFFFF" d="M71.418,16.823v4.816h3.782v2.693h-3.782v12.122c0,0.935,0.193,1.593,0.581,1.974
			C72.387,38.809,72.9,39,73.54,39c0.209,0,0.439-0.024,0.692-0.074c0.252-0.049,0.477-0.111,0.673-0.185l0.48,2.491
			c-0.271,0.222-0.667,0.403-1.19,0.544c-0.523,0.141-1.049,0.212-1.578,0.212c-1.476,0-2.651-0.446-3.524-1.338
			c-0.874-0.892-1.31-2.291-1.31-4.197V24.332H64.61v-2.693h3.173v-4.816H71.418z"/>
		<path fill="#FFFFFF" d="M83.319,24.314c0.689-0.959,1.534-1.707,2.537-2.242c1.002-0.535,2.112-0.803,3.33-0.803
			c2.128,0,3.785,0.64,4.972,1.919s1.781,3.247,1.781,5.904v12.509h-3.635V29.055c0-1.648-0.354-2.866-1.061-3.653
			s-1.762-1.181-3.164-1.181c-1.009,0-1.922,0.237-2.74,0.71c-0.818,0.474-1.492,1.116-2.021,1.928v14.742h-3.635V12.819h3.635
			V24.314z"/>
		<path fill="#FFFFFF" d="M100.33,31.989c0-3.21,0.686-5.8,2.057-7.768s3.293-2.952,5.766-2.952c1.168,0,2.205,0.215,3.109,0.646
			c0.904,0.431,1.676,1.058,2.315,1.882V12.819h3.635v28.782h-2.97l-0.424-2.454c-0.652,0.935-1.452,1.642-2.399,2.122
			c-0.947,0.479-2.048,0.72-3.302,0.72c-2.436,0-4.342-0.883-5.72-2.648c-1.377-1.765-2.066-4.086-2.066-6.965V31.989z
			 M103.965,32.376c0,2.018,0.412,3.632,1.236,4.843c0.824,1.211,2.103,1.817,3.837,1.817c1.082,0,1.993-0.246,2.73-0.738
			c0.738-0.492,1.341-1.181,1.808-2.066v-9.317c-0.467-0.824-1.073-1.479-1.817-1.965c-0.744-0.486-1.639-0.729-2.684-0.729
			c-1.747,0-3.035,0.719-3.866,2.159c-0.83,1.439-1.245,3.309-1.245,5.609V32.376z"/>
		<path fill="#FFFFFF" d="M132.083,24.848l-1.864-0.11c-0.959,0-1.768,0.228-2.426,0.683c-0.658,0.455-1.166,1.095-1.522,1.918
			v14.262h-3.635V21.638h3.248l0.351,2.915c0.565-1.033,1.264-1.839,2.094-2.417c0.831-0.578,1.787-0.867,2.869-0.867
			c0.271,0,0.529,0.021,0.775,0.064c0.246,0.043,0.449,0.089,0.609,0.139L132.083,24.848z"/>
		<path fill="#FFFFFF" d="M147.857,41.601c-0.123-0.603-0.218-1.135-0.286-1.596c-0.067-0.461-0.107-0.926-0.12-1.393
			c-0.677,0.959-1.559,1.762-2.648,2.408c-1.088,0.646-2.26,0.969-3.515,0.969c-2.079,0-3.662-0.532-4.751-1.596
			c-1.088-1.064-1.633-2.531-1.633-4.4c0-1.906,0.772-3.397,2.315-4.474c1.543-1.076,3.638-1.614,6.283-1.614h3.948V27.93
			c0-1.168-0.357-2.094-1.07-2.777s-1.722-1.024-3.026-1.024c-1.168,0-2.119,0.298-2.851,0.895
			c-0.732,0.597-1.098,1.313-1.098,2.149h-3.469l-0.037-0.11c-0.074-1.451,0.612-2.78,2.057-3.985s3.312-1.808,5.6-1.808
			c2.263,0,4.083,0.575,5.461,1.725c1.377,1.15,2.066,2.808,2.066,4.972v9.613c0,0.713,0.037,1.402,0.11,2.066
			c0.074,0.664,0.209,1.316,0.406,1.956H147.857z M141.824,38.926c1.316,0,2.503-0.337,3.561-1.012
			c1.058-0.675,1.746-1.447,2.066-2.318v-3.238h-4.078c-1.464,0-2.635,0.368-3.515,1.104s-1.319,1.601-1.319,2.594
			c0,0.883,0.277,1.583,0.831,2.098C139.924,38.669,140.742,38.926,141.824,38.926z"/>
		<path fill="#FFFFFF" d="M161.474,34.332l0.424,2.417h0.111l0.517-2.417l3.985-12.693h2.915l4.003,12.693l0.572,2.694h0.11
			l0.535-2.694l3.137-12.693h3.616l-5.793,19.963h-2.934l-3.856-12.159l-0.83-3.395l-0.111,0.019l-0.793,3.376l-3.801,12.159h-2.934
			l-5.793-19.963h3.616L161.474,34.332z"/>
	</g>
</g>
</svg>
