<?xml version="1.0" encoding="utf-8"?>
<!-- Generator: Adobe Illustrator 14.0.0, SVG Export Plug-In . SVG Version: 6.00 Build 43363)  -->
<svg version="1.2" baseProfile="tiny" id="Layer_1" xmlns="http://www.w3.org/2000/svg" xmlns:xlink="http://www.w3.org/1999/xlink"
	 x="0px" y="0px" width="595.28px" height="335.477px" viewBox="0 0 595.28 335.477" xml:space="preserve">
<g id="_x23_6">
	<path id="Body_5_" fill="#E6E6E6" d="M588.521,319.83c0,8.634-6.752,15.646-15.08,15.646H25.332
		c-8.328,0-15.084-7.009-15.084-15.646V50.614h578.273V319.83z"/>
	<g>
		<path fill="#B3B3B3" d="M47.694,81.393h-6.362l-3.837,19.203h-2.849l3.837-19.203h-6.347l0.458-2.288h15.557L47.694,81.393z"/>
		<path fill="#B3B3B3" d="M55.177,87.193l-1.564-0.088c-0.649,0-1.248,0.185-1.793,0.554c-0.546,0.369-1.021,0.888-1.424,1.557
			l-2.273,11.38h-2.849l3.188-15.97h2.554l-0.177,2.14c0.551-0.777,1.173-1.377,1.867-1.801c0.693-0.423,1.439-0.635,2.236-0.635
			c0.197,0,0.411,0.018,0.642,0.052c0.231,0.035,0.401,0.071,0.509,0.111L55.177,87.193z"/>
		<path fill="#B3B3B3" d="M64.387,100.595c0-0.482,0.01-0.878,0.03-1.188c0.02-0.31,0.054-0.627,0.104-0.952
			c-0.66,0.699-1.415,1.282-2.266,1.749s-1.705,0.701-2.561,0.701c-1.457,0-2.531-0.436-3.225-1.306
			c-0.694-0.871-0.888-2.035-0.583-3.491c0.315-1.624,1.114-2.841,2.398-3.653s2.93-1.218,4.937-1.218h2.731l0.31-1.579
			c0.197-0.994,0.089-1.749-0.325-2.266c-0.413-0.517-1.102-0.775-2.066-0.775c-0.826,0-1.574,0.243-2.243,0.73
			c-0.669,0.487-1.068,1.055-1.196,1.705H57.73l-0.029-0.088c0.197-1.23,0.935-2.31,2.214-3.24c1.279-0.93,2.805-1.395,4.576-1.395
			c1.584,0,2.836,0.47,3.756,1.41c0.92,0.94,1.213,2.256,0.878,3.948l-1.535,7.69c-0.128,0.601-0.216,1.156-0.266,1.668
			s-0.049,1.028,0,1.55H64.387z M60.609,98.47c0.797,0,1.609-0.231,2.436-0.694c0.826-0.462,1.466-1.008,1.918-1.638l0.591-2.938
			h-2.819c-0.974,0-1.85,0.3-2.627,0.9c-0.777,0.601-1.24,1.29-1.387,2.066c-0.158,0.758-0.084,1.331,0.221,1.72
			S59.802,98.47,60.609,98.47z"/>
		<path fill="#B3B3B3" d="M71.915,92.61c0.541-2.745,1.41-4.812,2.605-6.199c1.196-1.387,2.733-2.081,4.613-2.081
			c0.816,0,1.557,0.17,2.221,0.509s1.208,0.819,1.631,1.439l1.742-8.708h2.849l-4.605,23.026h-2.45l0.104-1.535
			c-0.591,0.61-1.243,1.07-1.956,1.38c-0.713,0.31-1.483,0.465-2.31,0.465c-1.712,0-3.004-0.768-3.875-2.303
			c-0.871-1.535-1.08-3.429-0.627-5.683L71.915,92.61z M74.719,92.92c-0.344,1.693-0.28,3.053,0.192,4.081
			c0.472,1.028,1.358,1.542,2.657,1.542c0.699,0,1.326-0.194,1.882-0.583c0.556-0.389,1.065-0.942,1.528-1.661l1.505-7.542
			c-0.256-0.63-0.642-1.132-1.159-1.506c-0.517-0.374-1.158-0.561-1.926-0.561c-1.181,0-2.158,0.534-2.93,1.601
			c-0.772,1.068-1.335,2.507-1.69,4.317L74.719,92.92z"/>
		<path fill="#B3B3B3" d="M93.539,100.906c-2.007,0-3.525-0.746-4.553-2.236c-1.029-1.491-1.356-3.407-0.982-5.749l0.104-0.649
			c0.374-2.361,1.306-4.275,2.797-5.742c1.491-1.466,3.102-2.199,4.834-2.199c1.958,0,3.36,0.655,4.207,1.966
			s1.102,3.041,0.768,5.189l-0.295,1.818h-9.624c-0.217,1.625-0.066,2.917,0.45,3.875c0.517,0.958,1.399,1.438,2.649,1.438
			c0.866,0,1.677-0.144,2.435-0.433c0.758-0.289,1.417-0.668,1.978-1.138l0.812,1.892c-0.6,0.562-1.368,1.03-2.302,1.404
			C95.88,100.718,94.788,100.906,93.539,100.906z M95.384,86.618c-0.827,0-1.626,0.413-2.398,1.24
			c-0.773,0.827-1.326,1.85-1.661,3.07l0.044,0.089h6.568l0.059-0.384c0.187-1.19,0.074-2.157-0.339-2.9
			C97.243,86.989,96.485,86.618,95.384,86.618z"/>
		<path fill="#B3B3B3" d="M114.395,94.78l-0.059,1.697l0.088,0.03l0.679-1.727l4.959-10.155h2.273l0.93,10.155l-0.015,1.978
			l0.088,0.015l0.768-1.993l4.295-10.155h2.834l-7.498,15.97h-2.288l-0.856-9.727l-0.089-2.598l-0.088-0.015l-1.107,2.612
			l-4.723,9.727h-2.288l-1.122-15.97h2.834L114.395,94.78z"/>
		<path fill="#B3B3B3" d="M133.848,100.595H131l3.188-15.97h2.849L133.848,100.595z M137.863,80.536h-2.849l0.59-2.967h2.849
			L137.863,80.536z"/>
		<path fill="#B3B3B3" d="M145.848,80.773l-0.782,3.853h2.76l-0.428,2.155h-2.76l-1.934,9.697c-0.167,0.797-0.143,1.336,0.074,1.616
			c0.216,0.281,0.566,0.421,1.048,0.421c0.227,0,0.5-0.022,0.819-0.066c0.32-0.044,0.573-0.091,0.76-0.14l-0.015,1.992
			c-0.286,0.177-0.691,0.322-1.218,0.436c-0.527,0.113-1.046,0.17-1.557,0.17c-1.033,0-1.828-0.364-2.384-1.092
			c-0.556-0.728-0.682-1.84-0.376-3.336l1.934-9.697h-2.332l0.428-2.155h2.332L143,80.773H145.848z"/>
		<path fill="#B3B3B3" d="M153.848,86.559c0.659-0.718,1.39-1.27,2.192-1.653c0.802-0.384,1.651-0.576,2.546-0.576
			c1.496,0,2.607,0.522,3.335,1.564c0.728,1.043,0.886,2.608,0.473,4.694l-2.008,10.007h-2.849l2.007-10.037
			c0.275-1.397,0.222-2.391-0.162-2.982c-0.384-0.59-1.102-0.885-2.155-0.885c-0.66,0-1.329,0.194-2.008,0.583
			c-0.679,0.389-1.289,0.908-1.83,1.557l-2.347,11.764h-2.849L152.8,77.57h2.849L153.848,86.559z"/>
		<path fill="#B3B3B3" d="M184.136,95.06h-8.236l-2.996,5.535h-2.893l12.044-21.491h2.42l3.321,21.491h-2.908L184.136,95.06z
			 M177.228,92.625h6.568l-1.299-9.55l-0.088-0.03L177.228,92.625z"/>
		<path fill="#B3B3B3" d="M199.692,100.595l0.251-2.185c-0.63,0.817-1.346,1.437-2.147,1.86c-0.802,0.423-1.681,0.635-2.635,0.635
			c-1.525,0-2.655-0.566-3.388-1.697c-0.733-1.132-0.868-2.854-0.406-5.166l1.875-9.417h2.849l-1.889,9.446
			c-0.364,1.811-0.384,3.009-0.059,3.594s0.979,0.878,1.963,0.878c0.876,0,1.67-0.216,2.384-0.649
			c0.713-0.433,1.316-1.033,1.808-1.801l2.288-11.468h2.849l-3.188,15.97H199.692z"/>
		<path fill="#B3B3B3" d="M214.04,80.773l-0.782,3.853h2.76l-0.428,2.155h-2.76l-1.934,9.697c-0.167,0.797-0.143,1.336,0.074,1.616
			c0.216,0.281,0.566,0.421,1.048,0.421c0.227,0,0.5-0.022,0.819-0.066c0.32-0.044,0.573-0.091,0.76-0.14l-0.015,1.992
			c-0.286,0.177-0.691,0.322-1.218,0.436c-0.527,0.113-1.046,0.17-1.557,0.17c-1.033,0-1.828-0.364-2.384-1.092
			c-0.556-0.728-0.682-1.84-0.376-3.336l1.934-9.697h-2.332l0.428-2.155h2.332l0.783-3.853H214.04z"/>
		<path fill="#B3B3B3" d="M217.021,92.463c0.394-2.46,1.296-4.43,2.708-5.911s3.156-2.222,5.232-2.222
			c1.987,0,3.476,0.77,4.465,2.31s1.296,3.481,0.922,5.823l-0.044,0.325c-0.404,2.47-1.312,4.44-2.723,5.912
			c-1.412,1.471-3.157,2.207-5.232,2.207c-1.988,0-3.476-0.768-4.465-2.303c-0.989-1.535-1.292-3.473-0.908-5.815L217.021,92.463z
			 M219.825,92.78c-0.285,1.759-0.199,3.172,0.258,4.238c0.458,1.066,1.331,1.599,2.62,1.599c1.2,0,2.224-0.558,3.07-1.673
			c0.846-1.115,1.402-2.504,1.667-4.165l0.044-0.325c0.275-1.729,0.182-3.135-0.28-4.216c-0.463-1.081-1.329-1.622-2.598-1.622
			c-1.21,0-2.236,0.56-3.078,1.68c-0.841,1.121-1.395,2.506-1.661,4.157L219.825,92.78z"/>
		<path fill="#B3B3B3" d="M237.818,86.529c0.62-0.708,1.338-1.252,2.155-1.631c0.816-0.379,1.717-0.568,2.701-0.568
			c0.895,0,1.65,0.241,2.266,0.723c0.615,0.482,1.021,1.201,1.218,2.155c0.629-0.905,1.377-1.611,2.243-2.118
			c0.866-0.507,1.821-0.76,2.864-0.76c1.407,0,2.46,0.568,3.159,1.705c0.698,1.136,0.831,2.807,0.398,5.011l-1.904,9.55h-2.863
			l1.919-9.579c0.325-1.692,0.315-2.836-0.03-3.432c-0.344-0.596-1.018-0.893-2.022-0.893c-0.807,0-1.57,0.356-2.288,1.07
			c-0.719,0.714-1.24,1.587-1.565,2.62c-0.01,0.02-0.015,0.035-0.015,0.044s0,0.02,0,0.029l-2.022,10.14h-2.864l1.919-9.579
			c0.315-1.604,0.295-2.726-0.059-3.365c-0.354-0.64-1.023-0.959-2.007-0.959c-0.748,0-1.417,0.189-2.007,0.568
			c-0.59,0.379-1.097,0.903-1.52,1.572l-2.362,11.764h-2.849l3.188-15.97h2.539L237.818,86.529z"/>
		<path fill="#B3B3B3" d="M266.024,100.595c0-0.482,0.01-0.878,0.03-1.188c0.02-0.31,0.054-0.627,0.104-0.952
			c-0.66,0.699-1.415,1.282-2.266,1.749s-1.705,0.701-2.561,0.701c-1.457,0-2.531-0.436-3.225-1.306
			c-0.694-0.871-0.888-2.035-0.583-3.491c0.315-1.624,1.114-2.841,2.398-3.653s2.93-1.218,4.937-1.218h2.731l0.31-1.579
			c0.197-0.994,0.089-1.749-0.325-2.266c-0.413-0.517-1.102-0.775-2.066-0.775c-0.826,0-1.574,0.243-2.243,0.73
			c-0.669,0.487-1.068,1.055-1.196,1.705h-2.701l-0.029-0.088c0.197-1.23,0.935-2.31,2.214-3.24c1.279-0.93,2.805-1.395,4.576-1.395
			c1.584,0,2.836,0.47,3.756,1.41c0.92,0.94,1.213,2.256,0.878,3.948l-1.535,7.69c-0.128,0.601-0.216,1.156-0.266,1.668
			s-0.049,1.028,0,1.55H266.024z M262.246,98.47c0.797,0,1.609-0.231,2.436-0.694c0.826-0.462,1.466-1.008,1.918-1.638l0.591-2.938
			h-2.819c-0.974,0-1.85,0.3-2.627,0.9c-0.777,0.601-1.24,1.29-1.387,2.066c-0.158,0.758-0.084,1.331,0.221,1.72
			S261.438,98.47,262.246,98.47z"/>
		<path fill="#B3B3B3" d="M280.327,80.773l-0.782,3.853h2.76l-0.428,2.155h-2.76l-1.934,9.697c-0.167,0.797-0.143,1.336,0.074,1.616
			c0.216,0.281,0.566,0.421,1.048,0.421c0.227,0,0.5-0.022,0.819-0.066c0.32-0.044,0.573-0.091,0.76-0.14l-0.015,1.992
			c-0.286,0.177-0.691,0.322-1.218,0.436c-0.527,0.113-1.046,0.17-1.557,0.17c-1.033,0-1.828-0.364-2.384-1.092
			c-0.556-0.728-0.682-1.84-0.376-3.336l1.934-9.697h-2.332l0.428-2.155h2.332l0.783-3.853H280.327z"/>
		<path fill="#B3B3B3" d="M289.094,100.906c-2.007,0-3.525-0.746-4.553-2.236c-1.029-1.491-1.356-3.407-0.982-5.749l0.104-0.649
			c0.374-2.361,1.306-4.275,2.797-5.742c1.491-1.466,3.102-2.199,4.834-2.199c1.958,0,3.36,0.655,4.207,1.966
			s1.102,3.041,0.768,5.189l-0.295,1.818h-9.624c-0.217,1.625-0.066,2.917,0.45,3.875c0.517,0.958,1.399,1.438,2.649,1.438
			c0.866,0,1.677-0.144,2.435-0.433c0.758-0.289,1.417-0.668,1.978-1.138l0.812,1.892c-0.6,0.562-1.368,1.03-2.302,1.404
			C291.436,100.718,290.344,100.906,289.094,100.906z M290.939,86.618c-0.827,0-1.626,0.413-2.398,1.24
			c-0.773,0.827-1.326,1.85-1.661,3.07l0.044,0.089h6.568l0.059-0.384c0.187-1.19,0.074-2.157-0.339-2.9
			C292.799,86.989,292.041,86.618,290.939,86.618z"/>
		<path fill="#B3B3B3" d="M298.718,92.61c0.541-2.745,1.409-4.812,2.605-6.199c1.195-1.387,2.732-2.081,4.612-2.081
			c0.816,0,1.557,0.17,2.221,0.509c0.665,0.339,1.208,0.819,1.632,1.439l1.741-8.708h2.849l-4.605,23.026h-2.45l0.104-1.535
			c-0.59,0.61-1.242,1.07-1.955,1.38c-0.714,0.31-1.483,0.465-2.311,0.465c-1.712,0-3.003-0.768-3.874-2.303
			s-1.08-3.429-0.628-5.683L298.718,92.61z M301.522,92.92c-0.345,1.693-0.281,3.053,0.191,4.081
			c0.473,1.028,1.358,1.542,2.657,1.542c0.698,0,1.325-0.194,1.882-0.583c0.556-0.389,1.064-0.942,1.527-1.661l1.506-7.542
			c-0.256-0.63-0.643-1.132-1.159-1.506c-0.517-0.374-1.158-0.561-1.926-0.561c-1.181,0-2.157,0.534-2.93,1.601
			c-0.773,1.068-1.336,2.507-1.69,4.317L301.522,92.92z"/>
		<path fill="#B3B3B3" d="M321.596,100.595l4.295-21.491h6.612c1.958,0,3.464,0.493,4.517,1.477
			c1.053,0.985,1.388,2.432,1.004,4.342c-0.207,1.015-0.659,1.886-1.357,2.614c-0.699,0.729-1.556,1.271-2.568,1.625
			c1.151,0.275,1.97,0.913,2.457,1.911s0.598,2.151,0.332,3.459c-0.423,2.095-1.313,3.629-2.671,4.603
			c-1.358,0.974-3.08,1.46-5.166,1.46H321.596z M326.451,90.529l-1.55,7.779h4.605c1.112,0,2.084-0.331,2.915-0.993
			c0.832-0.662,1.37-1.581,1.616-2.757c0.256-1.333,0.185-2.338-0.214-3.015c-0.398-0.676-1.179-1.015-2.34-1.015H326.451z
			 M326.909,88.241h4.354c0.886,0,1.709-0.303,2.472-0.908c0.763-0.605,1.247-1.429,1.454-2.473c0.246-1.23,0.101-2.115-0.436-2.657
			c-0.536-0.541-1.438-0.812-2.708-0.812h-3.764L326.909,88.241z"/>
		<path fill="#B3B3B3" d="M340.208,92.463c0.394-2.46,1.296-4.43,2.708-5.911s3.156-2.222,5.233-2.222
			c1.987,0,3.476,0.77,4.465,2.31c0.988,1.54,1.296,3.481,0.922,5.823l-0.044,0.325c-0.403,2.47-1.312,4.44-2.724,5.912
			s-3.156,2.207-5.232,2.207c-1.987,0-3.476-0.768-4.465-2.303c-0.988-1.535-1.291-3.473-0.907-5.815L340.208,92.463z
			 M343.013,92.78c-0.286,1.759-0.199,3.172,0.258,4.238c0.458,1.066,1.331,1.599,2.62,1.599c1.2,0,2.224-0.558,3.07-1.673
			c0.846-1.115,1.402-2.504,1.668-4.165l0.044-0.325c0.275-1.729,0.182-3.135-0.28-4.216c-0.463-1.081-1.328-1.622-2.598-1.622
			c-1.211,0-2.236,0.56-3.078,1.68c-0.841,1.121-1.395,2.506-1.66,4.157L343.013,92.78z"/>
		<path fill="#B3B3B3" d="M356.385,92.463c0.394-2.46,1.296-4.43,2.708-5.911s3.156-2.222,5.233-2.222
			c1.987,0,3.476,0.77,4.465,2.31c0.988,1.54,1.296,3.481,0.922,5.823l-0.044,0.325c-0.403,2.47-1.312,4.44-2.724,5.912
			s-3.156,2.207-5.232,2.207c-1.987,0-3.476-0.768-4.465-2.303c-0.988-1.535-1.291-3.473-0.907-5.815L356.385,92.463z
			 M359.189,92.78c-0.286,1.759-0.199,3.172,0.258,4.238c0.458,1.066,1.331,1.599,2.62,1.599c1.2,0,2.224-0.558,3.07-1.673
			c0.846-1.115,1.402-2.504,1.668-4.165l0.044-0.325c0.275-1.729,0.182-3.135-0.28-4.216c-0.463-1.081-1.328-1.622-2.598-1.622
			c-1.211,0-2.236,0.56-3.078,1.68c-0.841,1.121-1.395,2.506-1.66,4.157L359.189,92.78z"/>
		<path fill="#B3B3B3" d="M377.714,93.2h-1.742l-1.476,7.395h-2.849l4.605-23.026h2.849l-2.672,13.343h1.727l5.122-6.288h3.307
			l0.029,0.074l-6.361,7.188l3.984,8.708h-3.351L377.714,93.2z"/>
		<path fill="#B3B3B3" d="M392.355,93.2h-1.742l-1.476,7.395h-2.849l4.605-23.026h2.849l-2.672,13.343h1.727l5.122-6.288h3.307
			l0.029,0.074l-6.361,7.188l3.984,8.708h-3.351L392.355,93.2z"/>
		<path fill="#B3B3B3" d="M407.042,100.906c-2.008,0-3.525-0.746-4.554-2.236s-1.355-3.407-0.981-5.749l0.103-0.649
			c0.374-2.361,1.307-4.275,2.798-5.742c1.49-1.466,3.102-2.199,4.834-2.199c1.958,0,3.359,0.655,4.206,1.966
			s1.103,3.041,0.768,5.189l-0.295,1.818h-9.624c-0.216,1.625-0.066,2.917,0.45,3.875c0.517,0.958,1.4,1.438,2.649,1.438
			c0.866,0,1.678-0.144,2.436-0.433c0.758-0.289,1.417-0.668,1.978-1.138l0.813,1.892c-0.601,0.562-1.368,1.03-2.303,1.404
			S408.291,100.906,407.042,100.906z M408.887,86.618c-0.827,0-1.626,0.413-2.398,1.24s-1.326,1.85-1.661,3.07l0.045,0.089h6.568
			l0.059-0.384c0.187-1.19,0.074-2.157-0.34-2.9C410.746,86.989,409.988,86.618,408.887,86.618z"/>
		<path fill="#B3B3B3" d="M422.112,100.906c-2.008,0-3.525-0.746-4.554-2.236s-1.355-3.407-0.981-5.749l0.103-0.649
			c0.374-2.361,1.307-4.275,2.798-5.742c1.49-1.466,3.102-2.199,4.834-2.199c1.958,0,3.359,0.655,4.206,1.966
			s1.103,3.041,0.768,5.189l-0.295,1.818h-9.624c-0.216,1.625-0.066,2.917,0.45,3.875c0.517,0.958,1.4,1.438,2.649,1.438
			c0.866,0,1.678-0.144,2.436-0.433c0.758-0.289,1.417-0.668,1.978-1.138l0.813,1.892c-0.601,0.562-1.368,1.03-2.303,1.404
			S423.361,100.906,422.112,100.906z M423.957,86.618c-0.827,0-1.626,0.413-2.398,1.24s-1.326,1.85-1.661,3.07l0.045,0.089h6.568
			l0.059-0.384c0.187-1.19,0.074-2.157-0.34-2.9C425.816,86.989,425.059,86.618,423.957,86.618z"/>
		<path fill="#B3B3B3" d="M444.931,93.51c-0.492,2.46-1.321,4.308-2.487,5.542s-2.67,1.853-4.51,1.853
			c-0.855,0-1.626-0.163-2.31-0.487s-1.247-0.797-1.69-1.417l-1.55,7.734h-2.849l4.414-22.11h2.449l-0.103,1.579
			c0.59-0.61,1.252-1.075,1.985-1.395c0.732-0.32,1.522-0.48,2.368-0.48c1.723,0,2.999,0.851,3.831,2.554
			c0.831,1.702,1.001,3.808,0.509,6.317L444.931,93.51z M442.141,93.193c0.374-1.907,0.317-3.467-0.17-4.681
			c-0.487-1.213-1.375-1.82-2.664-1.82c-0.659,0-1.27,0.191-1.83,0.575c-0.562,0.383-1.068,0.909-1.521,1.577l-1.564,7.799
			c0.256,0.619,0.64,1.104,1.151,1.452s1.166,0.523,1.963,0.523c1.171,0,2.146-0.459,2.923-1.378s1.328-2.165,1.652-3.737
			L442.141,93.193z"/>
		<path fill="#B3B3B3" d="M453.359,100.906c-2.008,0-3.525-0.746-4.554-2.236s-1.355-3.407-0.981-5.749l0.103-0.649
			c0.374-2.361,1.307-4.275,2.798-5.742c1.49-1.466,3.102-2.199,4.834-2.199c1.958,0,3.359,0.655,4.206,1.966
			s1.103,3.041,0.768,5.189l-0.295,1.818h-9.624c-0.216,1.625-0.066,2.917,0.45,3.875c0.517,0.958,1.4,1.438,2.649,1.438
			c0.866,0,1.678-0.144,2.436-0.433c0.758-0.289,1.417-0.668,1.978-1.138l0.813,1.892c-0.601,0.562-1.368,1.03-2.303,1.404
			S454.608,100.906,453.359,100.906z M455.204,86.618c-0.827,0-1.626,0.413-2.398,1.24s-1.326,1.85-1.661,3.07l0.045,0.089h6.568
			l0.059-0.384c0.187-1.19,0.074-2.157-0.34-2.9C457.063,86.989,456.306,86.618,455.204,86.618z"/>
		<path fill="#B3B3B3" d="M471.912,87.193l-1.565-0.088c-0.649,0-1.247,0.185-1.793,0.554c-0.546,0.369-1.021,0.888-1.425,1.557
			l-2.272,11.38h-2.849l3.188-15.97h2.553l-0.177,2.14c0.551-0.777,1.173-1.377,1.867-1.801c0.693-0.423,1.439-0.635,2.236-0.635
			c0.196,0,0.41,0.018,0.642,0.052c0.231,0.035,0.401,0.071,0.51,0.111L471.912,87.193z"/>
		<path fill="#B3B3B3" d="M476.134,94.544c0.295-1.426,0.609-2.413,0.944-2.959c0.334-0.546,1.067-1.276,2.199-2.191
			c1.229-1.299,2.066-2.224,2.509-2.775c0.443-0.551,0.753-1.26,0.931-2.125c0.216-1.112,0.13-1.931-0.259-2.458s-1.056-0.79-2-0.79
			c-0.758,0-1.485,0.249-2.185,0.746c-0.698,0.497-1.137,1.208-1.313,2.133h-2.73l-0.029-0.088c0.295-1.584,1.074-2.854,2.339-3.808
			s2.733-1.432,4.406-1.432c1.702,0,2.986,0.502,3.853,1.506c0.865,1.003,1.126,2.376,0.782,4.118
			c-0.266,1.349-0.795,2.5-1.587,3.454c-0.792,0.955-1.887,2.042-3.284,3.262c-0.591,0.532-0.979,1.009-1.166,1.432
			c-0.188,0.423-0.369,1.083-0.546,1.978H476.134z M477.86,100.595h-2.952l0.62-3.07h2.952L477.86,100.595z"/>
	</g>
	<rect x="140.457" y="142.331" fill="#CCCCCC" width="314.565" height="54.427"/>
	<g>
		<path d="M152.056,170.613l2.17-20.638h18.83v4.52h-14.517l-1.24,10.564c0.792-0.585,1.675-1.072,2.647-1.459
			c0.973-0.387,2.097-0.598,3.371-0.633c3.461-0.034,6.186,1.094,8.175,3.384c1.989,2.29,2.983,5.373,2.983,9.247
			c0,3.771-1.012,6.803-3.035,9.093c-2.023,2.29-4.972,3.435-8.847,3.435c-3.186,0-5.838-0.869-7.956-2.608
			c-2.118-1.739-3.134-4.296-3.048-7.672l0.052-0.154h4.598c0,2.041,0.59,3.623,1.77,4.746c1.179,1.124,2.708,1.686,4.585,1.686
			c2.152,0,3.823-0.757,5.011-2.27c1.188-1.514,1.782-3.585,1.782-6.216c0-2.407-0.603-4.385-1.808-5.932
			c-1.206-1.547-2.867-2.321-4.985-2.321c-1.998,0-3.444,0.302-4.34,0.904s-1.55,1.523-1.963,2.764L152.056,170.613z"/>
		<path d="M194.753,149.433c1.292,0,2.57,0.146,3.836,0.439c1.266,0.293,2.312,0.663,3.138,1.111l-1.084,3.9
			c-0.844-0.43-1.727-0.779-2.648-1.046c-0.921-0.267-2.001-0.4-3.242-0.4c-2.686,0-4.852,1.077-6.496,3.229
			c-1.645,2.153-2.467,4.959-2.467,8.42v0.594c1.102-0.964,2.364-1.718,3.784-2.26c1.421-0.542,2.949-0.813,4.585-0.813
			c3.358,0,6.035,1.162,8.033,3.487c1.997,2.325,2.996,5.269,2.996,8.834c0,3.892-1.063,7.064-3.19,9.518
			c-2.127,2.454-4.964,3.681-8.511,3.681c-3.685,0-6.733-1.334-9.144-4.003c-2.411-2.669-3.616-6.432-3.616-11.288v-7.181
			c0-4.821,1.343-8.73,4.029-11.727C187.443,150.931,190.775,149.433,194.753,149.433z M193.022,166.403
			c-1.739,0-3.22,0.353-4.443,1.058s-2.152,1.642-2.79,2.812v3.043c0,3.457,0.732,6.122,2.196,7.996
			c1.463,1.874,3.297,2.812,5.501,2.812c2.083,0,3.707-0.881,4.869-2.644c1.163-1.763,1.744-3.951,1.744-6.564
			c0-2.476-0.625-4.514-1.873-6.112C196.979,167.203,195.244,166.403,193.022,166.403z"/>
		<path d="M237.217,153.979h-12.088v33.605h-5.088v-33.605h-12.063v-4.003h29.239V153.979z"/>
		<path d="M264.985,170.949h-17.151v16.635h-5.088v-37.608h24.875v4.003h-19.786v12.967h17.151V170.949z"/>
		<path d="M281.103,174.565l0.697,4.701l0.155,0.026l1.008-4.728l6.896-24.59h4.494l6.949,24.59l1.033,4.83h0.154l0.75-4.83
			l5.604-24.59h5.089l-9.066,37.608h-4.546l-7.414-26.088l-0.671-3.384h-0.155l-0.646,3.384l-7.542,26.088h-4.546l-9.041-37.608
			h5.063L281.103,174.565z"/>
		<path d="M339.015,174.927h5.192v4.003h-5.192v8.653h-5.063v-8.653H317.06v-2.869l16.583-26.086h5.372V174.927z M322.483,174.927
			h11.469v-17.643l-0.155-0.026l-0.49,1.292L322.483,174.927z"/>
		<path d="M349.94,170.613l2.17-20.638h18.83v4.52h-14.517l-1.24,10.564c0.792-0.585,1.675-1.072,2.647-1.459
			c0.973-0.387,2.097-0.598,3.371-0.633c3.461-0.034,6.187,1.094,8.175,3.384c1.989,2.29,2.983,5.373,2.983,9.247
			c0,3.771-1.012,6.803-3.035,9.093s-4.972,3.435-8.847,3.435c-3.186,0-5.837-0.869-7.955-2.608s-3.135-4.296-3.048-7.672
			l0.052-0.154h4.598c0,2.041,0.589,3.623,1.769,4.746c1.18,1.124,2.708,1.686,4.585,1.686c2.152,0,3.823-0.757,5.012-2.27
			c1.188-1.514,1.782-3.585,1.782-6.216c0-2.407-0.604-4.385-1.809-5.932c-1.205-1.547-2.867-2.321-4.985-2.321
			c-1.997,0-3.444,0.302-4.339,0.904c-0.896,0.603-1.55,1.523-1.963,2.764L349.94,170.613z"/>
		<path d="M407.103,182.598c-0.896,1.378-2.45,2.644-4.662,3.797c-2.213,1.154-5.076,1.73-8.589,1.73
			c-4.494,0-8.21-1.438-11.146-4.313c-2.937-2.875-4.404-6.595-4.404-11.158v-7.749c0-4.563,1.369-8.283,4.107-11.159
			c2.737-2.875,6.268-4.313,10.59-4.313c4.305,0,7.688,1.059,10.151,3.177c2.462,2.118,3.72,4.848,3.771,8.188l-0.052,0.155h-4.856
			c-0.155-2.187-0.986-3.986-2.492-5.398c-1.508-1.412-3.681-2.118-6.522-2.118c-2.876,0-5.191,1.076-6.948,3.227
			s-2.635,4.878-2.635,8.181v7.794c0,3.339,0.981,6.087,2.944,8.246c1.964,2.159,4.46,3.239,7.491,3.239
			c2.135,0,3.883-0.283,5.243-0.851c1.36-0.566,2.333-1.211,2.919-1.933v-8.53h-8.239v-4.004h13.328V182.598z"/>
		<path d="M443.161,182.598c-0.896,1.378-2.45,2.644-4.662,3.797c-2.213,1.154-5.076,1.73-8.589,1.73
			c-4.494,0-8.21-1.438-11.146-4.313c-2.937-2.875-4.404-6.595-4.404-11.158v-7.749c0-4.563,1.369-8.283,4.107-11.159
			c2.737-2.875,6.268-4.313,10.59-4.313c4.305,0,7.688,1.059,10.151,3.177c2.462,2.118,3.72,4.848,3.771,8.188l-0.052,0.155h-4.856
			c-0.155-2.187-0.986-3.986-2.492-5.398c-1.508-1.412-3.681-2.118-6.522-2.118c-2.876,0-5.191,1.076-6.948,3.227
			s-2.635,4.878-2.635,8.181v7.794c0,3.339,0.981,6.087,2.944,8.246c1.964,2.159,4.46,3.239,7.491,3.239
			c2.135,0,3.883-0.283,5.243-0.851c1.36-0.566,2.333-1.211,2.919-1.933v-8.53h-8.239v-4.004h13.328V182.598z"/>
	</g>
	<path fill="#5DBB4E" d="M418.651,294.241c0,4.176-3.387,7.558-7.559,7.558H184.379c-4.171,0-7.557-3.382-7.557-7.558v-45.343
		c0-4.172,3.386-7.558,7.557-7.558h226.714c4.172,0,7.559,3.386,7.559,7.558V294.241z"/>
	<g>
		<path fill="#FFFFFF" d="M244.771,277.278l0.044,0.133c0.059,3.026-1.004,5.562-3.188,7.605c-2.185,2.045-5.07,3.066-8.657,3.066
			c-3.646,0-6.617-1.291-8.912-3.874c-2.295-2.583-3.443-5.86-3.443-9.831v-5.733c0-3.971,1.147-7.251,3.443-9.842
			c2.295-2.59,5.266-3.886,8.912-3.886c3.646,0,6.546,0.971,8.701,2.912c2.155,1.94,3.203,4.513,3.144,7.716l-0.044,0.133h-4.185
			c0-2.259-0.665-4.044-1.993-5.358c-1.329-1.313-3.203-1.971-5.624-1.971c-2.436,0-4.376,0.981-5.823,2.942
			c-1.447,1.962-2.17,4.395-2.17,7.3v5.774c0,2.935,0.723,5.383,2.17,7.344c1.446,1.962,3.387,2.942,5.823,2.942
			c2.42,0,4.295-0.653,5.624-1.959c1.328-1.307,1.993-3.111,1.993-5.414H244.771z"/>
		<path fill="#FFFFFF" d="M248.867,275.419c0-3.542,0.959-6.461,2.878-8.757c1.918-2.295,4.524-3.442,7.815-3.442
			c3.321,0,5.944,1.145,7.871,3.432c1.926,2.288,2.889,5.211,2.889,8.768v0.487c0,3.572-0.959,6.494-2.878,8.768
			c-1.919,2.272-4.532,3.409-7.837,3.409c-3.307,0-5.923-1.14-7.849-3.421c-1.926-2.28-2.889-5.199-2.889-8.756V275.419z
			 M253.229,275.894c0,2.536,0.535,4.63,1.605,6.28c1.07,1.651,2.66,2.477,4.771,2.477c2.081,0,3.66-0.825,4.738-2.477
			c1.077-1.65,1.616-3.744,1.616-6.28v-0.486c0-2.506-0.542-4.592-1.627-6.258s-2.675-2.499-4.771-2.499
			c-2.081,0-3.657,0.833-4.727,2.499c-1.07,1.666-1.605,3.752-1.605,6.258V275.894z"/>
		<path fill="#FFFFFF" d="M279.553,263.663l0.31,3.564c0.797-1.27,1.797-2.255,3-2.956s2.572-1.052,4.107-1.052
			c2.583,0,4.583,0.757,6,2.27s2.125,3.849,2.125,7.007v15.122h-4.361v-15.033c0-2.11-0.417-3.608-1.251-4.494
			c-0.834-0.886-2.107-1.328-3.819-1.328c-1.255,0-2.366,0.302-3.332,0.907c-0.967,0.605-1.738,1.432-2.313,2.479v17.469h-4.362
			v-23.955H279.553z"/>
		<path fill="#FFFFFF" d="M303.242,287.618v-20.723h-3.741v-3.232h3.741v-3.033c0-2.554,0.668-4.528,2.004-5.923
			s3.199-2.093,5.59-2.093c0.502,0,1.008,0.041,1.517,0.122c0.51,0.081,1.074,0.196,1.694,0.344l-0.531,3.32
			c-0.266-0.059-0.587-0.11-0.964-0.154c-0.376-0.045-0.771-0.066-1.185-0.066c-1.27,0-2.214,0.38-2.833,1.14
			c-0.62,0.761-0.931,1.863-0.931,3.311v3.033h4.981v3.232h-4.981v20.723H303.242z"/>
		<path fill="#FFFFFF" d="M321.796,257.53h-4.361v-4.45h4.361V257.53z M321.796,287.618h-4.361v-23.955h4.361V287.618z"/>
		<path fill="#FFFFFF" d="M339.84,267.514l-2.236-0.133c-1.151,0-2.122,0.273-2.911,0.819c-0.79,0.547-1.399,1.314-1.827,2.303
			v17.114h-4.361v-23.955h3.896l0.421,3.498c0.679-1.24,1.517-2.207,2.513-2.9c0.996-0.694,2.144-1.041,3.443-1.041
			c0.324,0,0.634,0.026,0.93,0.077c0.295,0.053,0.538,0.107,0.73,0.166L339.84,267.514z"/>
		<path fill="#FFFFFF" d="M347.942,263.663l0.311,3.144c0.782-1.137,1.774-2.019,2.978-2.646c1.203-0.628,2.602-0.941,4.195-0.941
			s2.963,0.369,4.107,1.107c1.144,0.738,2.003,1.845,2.579,3.32c0.753-1.357,1.749-2.435,2.989-3.232
			c1.239-0.797,2.686-1.195,4.339-1.195c2.436,0,4.361,0.838,5.778,2.513c1.417,1.676,2.126,4.196,2.126,7.562v14.324h-4.361
			v-14.369c0-2.361-0.406-4.032-1.218-5.015c-0.813-0.981-2.022-1.472-3.631-1.472c-1.491,0-2.698,0.517-3.62,1.55
			c-0.923,1.033-1.465,2.339-1.628,3.918v0.178v15.21h-4.384v-14.369c0-2.243-0.417-3.886-1.25-4.926
			c-0.835-1.041-2.034-1.561-3.599-1.561c-1.328,0-2.421,0.272-3.276,0.818c-0.856,0.547-1.513,1.314-1.971,2.303v17.734h-4.361
			v-23.955H347.942z"/>
	</g>
	<path id="Header_5_" fill="#02A4D9" d="M595.28,37.785c0,10.437-8.461,18.894-18.893,18.894H18.893C8.46,56.678,0,48.221,0,37.785
		V18.892C0,8.456,8.46,0,18.893,0h557.495c10.432,0,18.893,8.456,18.893,18.893V37.785z"/>
	<g>
		<path fill="#FFFFFF" d="M42.599,17.592h-8.635v24.003H30.33V17.592h-8.616v-2.86h20.885V17.592z"/>
		<path fill="#FFFFFF" d="M54.112,24.843l-1.864-0.111c-0.959,0-1.768,0.228-2.426,0.683c-0.658,0.455-1.166,1.095-1.522,1.919
			v14.262h-3.635V21.633h3.248l0.351,2.915c0.565-1.033,1.264-1.839,2.094-2.417c0.831-0.578,1.787-0.867,2.869-0.867
			c0.271,0,0.529,0.021,0.775,0.064c0.246,0.043,0.449,0.089,0.609,0.139L54.112,24.843z"/>
		<path fill="#FFFFFF" d="M69.887,41.595c-0.123-0.603-0.219-1.135-0.286-1.596c-0.068-0.461-0.108-0.926-0.12-1.393
			c-0.677,0.959-1.559,1.762-2.648,2.408c-1.088,0.646-2.26,0.968-3.515,0.968c-2.079,0-3.662-0.532-4.751-1.596
			c-1.088-1.064-1.633-2.531-1.633-4.4c0-1.906,0.772-3.397,2.315-4.474c1.543-1.076,3.638-1.614,6.282-1.614h3.949v-1.974
			c0-1.168-0.357-2.094-1.07-2.777s-1.722-1.024-3.026-1.024c-1.168,0-2.119,0.298-2.851,0.895s-1.098,1.313-1.098,2.149h-3.469
			l-0.037-0.111c-0.074-1.451,0.612-2.78,2.057-3.985c1.445-1.205,3.312-1.808,5.6-1.808c2.263,0,4.083,0.575,5.461,1.725
			c1.377,1.15,2.066,2.808,2.066,4.972v9.613c0,0.713,0.037,1.402,0.111,2.066c0.074,0.664,0.209,1.316,0.406,1.956H69.887z
			 M63.854,38.92c1.316,0,2.503-0.337,3.561-1.012c1.058-0.675,1.746-1.447,2.066-2.318v-3.238h-4.078
			c-1.464,0-2.636,0.368-3.515,1.104c-0.88,0.736-1.319,1.601-1.319,2.594c0,0.883,0.277,1.583,0.83,2.098
			C61.953,38.663,62.771,38.92,63.854,38.92z"/>
		<path fill="#FFFFFF" d="M77.562,31.983c0-3.21,0.686-5.799,2.057-7.768c1.372-1.968,3.293-2.952,5.766-2.952
			c1.168,0,2.205,0.215,3.109,0.646c0.904,0.431,1.676,1.058,2.315,1.882V12.813h3.635v28.782h-2.971l-0.424-2.454
			c-0.652,0.935-1.451,1.642-2.398,2.122c-0.947,0.479-2.048,0.719-3.302,0.719c-2.436,0-4.342-0.882-5.72-2.647
			c-1.378-1.765-2.066-4.086-2.066-6.965V31.983z M81.197,32.37c0,2.018,0.412,3.632,1.236,4.843s2.104,1.817,3.838,1.817
			c1.082,0,1.993-0.246,2.73-0.738c0.738-0.492,1.341-1.181,1.808-2.066v-9.317c-0.467-0.824-1.073-1.479-1.817-1.965
			c-0.744-0.485-1.639-0.729-2.685-0.729c-1.747,0-3.035,0.72-3.865,2.159c-0.83,1.439-1.245,3.309-1.245,5.609V32.37z"/>
		<path fill="#FFFFFF" d="M108.152,41.983c-2.78,0-4.991-0.925-6.633-2.776s-2.463-4.253-2.463-7.205V31.19
			c0-2.841,0.845-5.206,2.537-7.094c1.691-1.888,3.693-2.832,6.006-2.832c2.693,0,4.729,0.812,6.107,2.436
			c1.377,1.624,2.066,3.789,2.066,6.494v2.27H102.82l-0.055,0.092c0.037,1.914,0.522,3.487,1.458,4.72
			c0.935,1.232,2.245,1.849,3.93,1.849c1.23,0,2.309-0.175,3.238-0.526c0.928-0.351,1.731-0.833,2.408-1.448l1.42,2.364
			c-0.713,0.706-1.654,1.293-2.823,1.764C111.227,41.748,109.813,41.983,108.152,41.983z M107.599,24.123
			c-1.218,0-2.257,0.512-3.118,1.535c-0.861,1.024-1.39,2.308-1.587,3.853l0.037,0.092h9.207v-0.478
			c0-1.422-0.381-2.611-1.144-3.567C110.231,24.601,109.1,24.123,107.599,24.123z"/>
	</g>
</g>
</svg>
